<?xml version="1.0" standalone="no"?>
<!DOCTYPE svg PUBLIC "-//W3C//DTD SVG 20010904//EN"
 "http://www.w3.org/TR/2001/REC-SVG-20010904/DTD/svg10.dtd">
<svg version="1.0" xmlns="http://www.w3.org/2000/svg"
 width="1400.000000pt" height="350.000000pt" viewBox="0 0 1400.000000 350.000000"
 preserveAspectRatio="xMidYMid meet">

<g transform="translate(0.000000,350.000000) scale(0.100000,-0.100000)"
fill="#000000" stroke="none">
<path d="M7620 3350 c0 -93 4 -150 10 -150 6 0 10 -4 10 -10 0 -6 -138 -10
-394 -10 l-394 0 -52 -57 c-29 -32 -80 -87 -114 -123 -33 -36 -90 -97 -125
-135 -36 -39 -97 -104 -136 -145 -39 -41 -102 -109 -141 -150 -38 -42 -123
-134 -190 -205 -66 -72 -151 -164 -189 -205 -95 -104 -193 -207 -303 -321 -94
-98 -110 -107 -187 -112 l-30 -2 -8 75 c-4 41 -6 197 -4 345 3 234 6 277 23
323 10 28 22 52 26 52 5 0 8 11 8 25 0 52 -36 18 -75 -70 -31 -70 -42 -177
-49 -508 -4 -207 -3 -219 16 -236 15 -14 19 -29 16 -62 l-3 -44 -57 -3 -58 -3
0 -97 -1 -97 -52 -56 c-29 -30 -74 -80 -101 -110 -45 -49 -134 -145 -270 -289
-29 -30 -79 -84 -111 -120 -32 -36 -120 -130 -195 -210 -75 -80 -159 -171
-186 -203 -49 -58 -252 -267 -260 -267 -2 0 -4 27 -4 60 l0 61 34 -6 c37 -7
41 -5 50 41 6 28 4 32 -23 43 -61 26 -68 44 -74 181 -2 69 -10 139 -17 155 -7
17 -21 49 -31 72 -11 24 -19 50 -19 58 0 8 -5 15 -11 15 -7 0 -9 -9 -5 -22 4
-13 10 -42 13 -65 7 -51 -9 -57 -27 -10 -18 47 -93 157 -105 154 -17 -6 -75
-110 -89 -162 -10 -35 -16 -144 -20 -368 l-5 -318 24 -9 c15 -6 25 -17 25 -30
0 -19 6 -20 164 -20 l163 0 26 31 c14 17 83 92 154 167 71 75 158 169 194 208
83 91 481 517 573 614 40 41 126 134 191 205 66 72 127 133 136 137 15 6 17
-12 21 -170 3 -97 9 -185 13 -195 6 -15 15 -17 45 -12 21 4 54 2 73 -3 45 -13
89 -4 85 16 -2 8 -24 21 -49 28 -26 8 -50 21 -53 30 -4 9 -2 42 3 73 5 31 12
96 16 146 3 49 11 95 17 102 6 7 24 13 41 13 l30 0 -5 110 c-6 127 -13 112
108 240 38 41 139 149 224 240 84 91 181 194 214 230 34 36 124 133 201 215
76 83 177 191 224 240 47 50 140 149 206 219 66 71 126 135 133 143 11 10 78
13 322 13 170 0 315 -3 324 -6 13 -5 16 -23 16 -94 l0 -89 30 1 c17 1 33 -2
37 -6 8 -8 -21 -101 -52 -171 -42 -92 -55 -127 -55 -149 0 -44 -11 -46 -263
-46 l-240 0 -79 -85 c-44 -47 -86 -85 -93 -85 -7 0 -15 -4 -17 -9 -1 -6 -57
-67 -123 -137 -66 -69 -123 -135 -127 -145 -4 -10 -20 -26 -35 -36 -15 -10
-34 -26 -42 -37 -16 -22 -88 -100 -170 -184 -33 -33 -62 -69 -65 -79 -4 -11
-21 -28 -39 -38 -18 -9 -42 -31 -54 -48 -30 -41 -123 -137 -134 -137 -5 0 -9
-5 -9 -11 0 -11 -56 -80 -95 -119 -49 -47 -148 -150 -202 -208 l-63 -67 0 128
c0 71 -4 126 -8 123 -4 -2 -6 -62 -5 -133 2 -113 0 -133 -17 -161 -11 -18 -27
-32 -35 -32 -8 0 -15 -3 -15 -7 -1 -15 -228 -253 -242 -253 -4 0 -8 -8 -8 -18
0 -10 -8 -25 -17 -34 -77 -66 -292 -296 -306 -325 -6 -13 -14 -23 -18 -23 -4
0 -47 -41 -96 -91 -48 -50 -109 -113 -135 -139 -25 -27 -49 -58 -53 -69 l-6
-21 3204 0 3204 0 -20 77 c-28 110 -28 138 0 138 13 0 23 5 23 10 -1 11 -19
11 -67 0 -29 -7 -33 -5 -33 13 0 11 5 22 12 24 14 5 20 55 22 186 1 88 -2 106
-16 116 -10 7 -18 22 -18 32 0 11 -9 36 -20 57 -39 73 -23 75 63 8 94 -73 97
-74 204 -66 65 5 98 3 107 -4 11 -10 17 -3 31 34 21 54 85 95 85 53 0 -4 -7
-8 -16 -8 -8 0 -12 -4 -9 -10 3 -5 -3 -10 -14 -10 -12 0 -21 -7 -21 -16 0 -11
6 -14 20 -9 15 5 18 3 14 -9 -7 -19 -40 -21 -47 -3 -3 7 -6 4 -6 -6 -1 -11
-10 -32 -22 -48 -12 -17 -23 -48 -26 -69 -3 -22 -10 -40 -14 -40 -5 0 -9 -8
-9 -17 0 -16 -125 -114 -164 -129 -10 -4 -14 -17 -12 -41 6 -61 16 -60 128 10
56 36 107 62 112 57 13 -12 38 -142 31 -165 -3 -12 -26 -30 -56 -44 -53 -24
-129 -89 -129 -110 0 -9 40 -11 150 -10 l150 1 0 28 c0 16 6 30 12 32 7 3 16
31 19 64 l7 59 -3 -65 c-1 -36 -6 -77 -10 -93 -7 -24 -5 -27 18 -27 27 0 27 0
28 125 0 48 -10 116 -21 130 -4 6 -10 23 -14 38 -6 24 -4 28 11 25 12 -2 20
-17 25 -43 20 -101 28 -164 28 -217 0 -58 0 -58 30 -58 30 0 30 1 30 53 0 62
19 46 20 -18 1 -35 2 -37 11 -17 5 13 6 54 3 92 l-6 69 62 31 c44 22 65 40 76
64 15 31 15 39 -5 119 -11 47 -21 101 -21 121 0 65 -20 135 -45 155 -22 17
-23 21 -13 49 11 29 10 34 -17 63 -44 47 -100 69 -155 62 -25 -3 -49 -10 -55
-14 -5 -5 -21 -9 -36 -9 -22 0 -31 8 -50 47 -15 29 -32 49 -44 52 -11 2 -33
14 -48 27 -18 15 -41 24 -63 24 -35 0 -93 -24 -106 -43 -11 -18 11 -47 37 -47
13 0 27 -5 30 -10 4 -6 15 -8 24 -5 11 3 29 -6 50 -25 33 -32 51 -32 51 1 0
10 3 19 8 19 9 -1 42 -66 42 -85 0 -9 -6 -12 -17 -8 -10 3 -15 3 -11 -1 3 -4
-2 -17 -12 -29 -10 -12 -28 -33 -39 -45 -11 -13 -22 -29 -24 -35 -2 -7 -9 -7
-23 1 -10 6 -14 12 -8 12 13 0 34 44 33 68 0 14 -2 14 -6 2 -3 -8 -14 -25 -23
-37 -13 -17 -20 -19 -29 -10 -11 11 -79 11 -136 0 -16 -3 -27 -2 -22 3 4 4
-14 22 -40 41 -39 28 -48 31 -56 18 -8 -16 -37 -21 -37 -7 0 4 5 13 11 19 6 6
8 16 5 22 -10 16 -39 14 -33 -2 3 -8 -4 -14 -17 -15 -26 -1 -76 51 -76 80 0
12 -8 30 -17 41 -17 18 -17 19 0 32 14 10 17 28 17 98 0 53 4 88 11 93 16 10
5 130 -14 152 -8 9 -12 22 -10 29 2 6 -5 30 -17 53 -12 23 -24 64 -27 91 -7
61 -26 80 -53 53 -47 -46 -60 -53 -60 -29 0 8 11 17 24 21 14 3 23 11 20 18
-3 7 4 23 15 35 30 34 33 54 16 87 -8 16 -15 25 -15 19 -1 -22 -29 42 -31 70
-2 26 -3 25 -8 -10 -5 -31 -11 -41 -28 -43 -14 -2 -27 4 -35 17 -17 28 -28 26
-28 -3 0 -18 4 -23 18 -20 24 7 48 -32 31 -52 -10 -12 -14 -12 -26 6 -20 28
-33 25 -33 -9 0 -16 -6 -34 -14 -40 -8 -7 -12 -20 -9 -30 3 -11 -2 -21 -13
-25 -22 -8 -100 72 -84 88 20 20 11 46 -15 46 -15 0 -25 -6 -25 -14 0 -8 -10
-13 -24 -13 -17 0 -23 4 -19 13 3 8 11 14 18 14 13 0 39 59 30 68 -3 3 -16 0
-29 -7 -29 -16 -46 -8 -46 21 0 16 5 19 23 14 27 -6 63 16 53 32 -11 18 -26
14 -26 -7 0 -17 -5 -19 -37 -14 -21 4 -43 13 -50 22 -11 14 -13 14 -27 -4 -16
-20 -16 -20 -31 -1 -13 17 -13 21 6 34 13 9 18 20 14 33 -5 15 -1 19 19 21 14
0 31 1 38 2 18 2 20 -20 3 -38 -15 -15 -15 -16 7 -16 25 0 65 55 47 65 -5 4
-9 15 -9 27 0 16 -3 18 -14 9 -10 -8 -21 -8 -40 -1 -15 5 -39 10 -53 10 -14 0
-31 7 -37 16 -10 13 -16 14 -41 2 -22 -10 -29 -10 -33 0 -2 6 -10 12 -18 12
-8 0 -14 10 -14 21 0 19 4 21 38 14 93 -17 123 -17 138 2 12 16 13 16 14 2 0
-21 24 -41 53 -44 12 -1 28 -3 35 -4 7 0 17 -12 22 -26 5 -14 14 -25 19 -25
12 0 4 24 -17 58 -9 13 -21 21 -29 18 -15 -6 -54 15 -94 51 -14 13 -43 27 -65
30 -21 3 -50 14 -63 25 -13 10 -32 18 -42 18 -11 0 -19 6 -19 13 0 15 -47 63
-55 56 -2 -3 4 -22 15 -43 19 -38 19 -38 -1 -43 -22 -6 -25 -32 -6 -52 10 -11
9 -12 -3 -6 -23 12 -50 37 -50 46 0 4 7 15 17 24 22 22 7 30 -54 30 -53 0 -48
7 -52 -77 -1 -10 -9 -18 -19 -18 -15 0 -18 -6 -14 -30 5 -33 13 -37 32 -15 12
14 15 14 30 0 9 -9 24 -13 33 -10 8 4 18 2 22 -4 4 -8 12 -8 25 -1 13 7 21 6
30 -5 10 -12 9 -15 -4 -15 -9 0 -16 -7 -16 -15 0 -22 -59 -16 -72 8 -9 17 -11
17 -34 2 -14 -9 -29 -13 -33 -10 -5 3 -20 1 -34 -4 -17 -7 -26 -19 -30 -43 -3
-18 -1 -37 4 -42 19 -20 10 -37 -16 -30 -20 5 -25 2 -25 -12 0 -16 -2 -16 -20
4 -24 26 -26 44 -4 35 14 -5 15 -1 10 25 -4 17 -3 33 3 36 6 4 8 13 5 21 -6
15 40 40 56 30 5 -3 12 5 16 17 5 16 1 27 -16 40 -21 17 -21 19 -6 43 9 14 21
25 26 25 6 0 10 9 10 20 0 11 -4 20 -10 20 -5 0 -10 -7 -10 -15 0 -8 -7 -15
-15 -15 -22 0 -53 39 -48 60 3 11 -2 26 -10 34 -8 9 -17 21 -19 27 -3 9 -12 8
-32 -3 l-29 -15 32 -6 c17 -4 31 -11 31 -17 0 -10 -10 -12 -55 -14 -13 -1 -21
-9 -23 -24 -3 -23 -10 -23 -75 -5 -18 5 -57 -22 -57 -39 0 -12 28 -10 32 4 3
7 12 9 22 5 29 -11 -3 -51 -44 -55 -29 -3 -32 -1 -27 17 2 11 1 21 -4 23 -5 2
-4 18 2 38 7 19 14 41 16 49 3 11 7 10 22 -3 18 -16 21 -16 60 4 23 11 41 26
41 33 0 8 10 23 23 35 18 17 35 22 82 22 45 0 56 3 47 12 -7 7 -43 11 -96 10
-62 0 -88 3 -97 14 -6 8 -18 14 -25 14 -23 0 -16 -29 12 -43 l25 -13 -20 -25
c-16 -20 -27 -24 -70 -22 l-52 1 6 -36 c4 -21 3 -32 -2 -26 -4 5 -25 23 -45
38 -21 16 -38 32 -38 36 0 4 14 10 31 14 19 4 33 13 36 26 3 11 11 20 18 20 7
0 15 7 18 15 4 10 -4 16 -28 21 -41 7 -61 -2 -45 -21 7 -8 9 -24 5 -36 l-8
-23 -13 26 c-10 19 -19 25 -34 21 -15 -4 -20 0 -20 16 0 11 5 21 10 21 7 0 7
6 0 20 -12 22 -35 26 -45 10 -4 -6 -1 -17 5 -25 10 -12 9 -15 -4 -15 -9 0 -21
11 -26 25 -12 32 -34 41 -65 27 -24 -11 -45 0 -25 13 6 4 8 11 4 16 -4 6 -14
2 -26 -11 -15 -16 -23 -19 -31 -11 -18 18 -27 13 -27 -17 0 -15 -4 -32 -9 -37
-5 -6 -12 -31 -15 -57 -7 -43 -5 -47 16 -50 22 -4 22 -5 3 -13 -11 -5 -26 -17
-33 -27 -17 -24 -54 -23 -78 3 -13 15 -16 24 -8 36 17 28 34 27 34 -1 0 -29
11 -33 29 -12 9 10 8 16 -4 26 -13 11 -13 15 0 40 19 36 10 60 -21 60 -17 0
-24 -6 -24 -19 0 -11 -4 -23 -10 -26 -5 -3 -10 -17 -10 -31 0 -31 -28 -43 -46
-20 -12 17 -14 17 -38 1 -14 -10 -26 -22 -26 -27 0 -5 -10 -8 -22 -6 -16 2
-23 10 -22 24 0 11 -5 21 -11 21 -6 0 -26 10 -43 23 -23 17 -35 21 -43 13 -8
-8 -5 -15 10 -25 18 -13 21 -23 18 -72 -2 -31 0 -59 4 -62 4 -2 5 -13 2 -24
-4 -15 -9 -18 -18 -10 -7 6 -11 19 -8 29 3 11 -4 28 -17 41 -17 17 -19 24 -10
36 10 11 9 15 -1 18 -41 13 -64 14 -75 5 -7 -6 -23 -8 -34 -4 l-22 7 23 24
c17 18 32 24 54 22 25 -3 29 0 27 16 -2 11 4 26 13 33 22 15 13 43 -14 43 -12
0 -25 13 -35 35 -17 34 -30 42 -90 47 -23 2 -31 9 -38 33 -4 17 -4 44 1 60 6
17 15 120 21 230 5 110 12 234 15 276 2 48 -1 90 -10 115 -8 24 -10 55 -6 79
6 36 9 40 39 43 18 2 35 9 37 15 2 7 5 63 7 125 l3 112 -92 0 -92 0 -3 -62
c-3 -60 -4 -63 -30 -66 l-27 -3 6 65 6 66 -28 0 -28 0 6 -60 c6 -65 -1 -77
-33 -60 -16 9 -20 21 -20 65 l0 55 -89 0 c-72 0 -90 -3 -95 -16 -3 -9 -6 -53
-6 -99 0 -93 11 -116 54 -108 26 5 26 5 26 -66 0 -68 -12 -93 -25 -51 -8 25
-31 26 -38 1 -3 -14 -15 -21 -38 -23 l-34 -3 -1 -133 c-2 -152 -3 -150 83
-146 66 4 68 0 76 -136 4 -58 10 -132 13 -165 l6 -60 -36 -18 c-20 -9 -52 -17
-71 -17 -24 0 -35 -5 -35 -14 0 -10 18 -17 58 -22 31 -3 65 -11 75 -16 10 -5
24 -5 33 0 29 16 65 2 71 -29 8 -41 19 -44 35 -9 9 21 20 30 36 30 29 0 41
-29 19 -45 -24 -17 -23 -56 1 -49 16 5 16 5 0 -9 -10 -8 -18 -18 -18 -23 0
-20 -18 -34 -33 -28 -18 7 -24 34 -7 34 6 0 10 7 10 16 0 9 -7 14 -17 12 -12
-2 -18 -13 -18 -33 -1 -17 -4 -36 -9 -43 -4 -7 -3 -19 4 -27 8 -10 6 -17 -12
-29 -12 -9 -32 -16 -44 -16 -12 0 -25 -10 -32 -25 -6 -14 -17 -25 -24 -25 -9
0 -12 -13 -10 -45 3 -28 0 -45 -7 -45 -6 0 -11 9 -11 20 0 11 -7 20 -15 20
-27 0 -29 30 -5 56 23 24 23 24 3 24 -12 0 -23 -7 -27 -15 -3 -8 -22 -23 -42
-32 l-36 -18 -24 28 c-18 21 -26 25 -30 14 -3 -8 8 -28 25 -46 19 -20 31 -27
34 -19 3 9 9 8 19 -6 13 -17 16 -17 30 -2 22 21 25 20 31 -11 4 -19 -2 -33
-22 -52 -42 -42 -51 -66 -34 -90 13 -20 12 -21 -14 -21 -33 0 -62 34 -37 44 8
3 12 11 9 16 -10 16 4 62 15 55 6 -3 10 3 10 14 0 17 -6 20 -33 19 -45 -2 -57
7 -57 44 0 44 -35 81 -63 67 -25 -14 -56 12 -40 33 6 7 7 36 4 68 -5 48 -9 55
-28 54 -13 0 -23 -4 -23 -9 0 -6 5 -10 12 -10 16 0 22 -22 8 -30 -6 -4 -19 0
-28 8 -9 8 -33 24 -53 35 -29 16 -38 17 -52 7 -15 -11 -14 -13 8 -23 14 -6 25
-16 25 -21 0 -17 -21 -23 -36 -10 -9 7 -30 13 -47 12 -29 0 -32 -2 -29 -28 2
-16 12 -40 23 -53 22 -29 25 -50 4 -32 -14 12 -35 6 -35 -10 0 -5 16 -17 36
-26 20 -9 40 -28 45 -41 9 -24 38 -32 40 -10 1 6 2 21 3 32 1 24 31 22 59 -3
18 -16 20 -15 38 7 17 21 19 21 20 5 1 -11 1 -27 0 -36 -1 -9 5 -30 13 -46 9
-18 11 -33 5 -43 -7 -11 -10 -9 -15 9 -5 18 -9 20 -16 10 -5 -8 -6 2 -2 27 6
36 5 39 -9 27 -11 -9 -17 -10 -22 -2 -5 8 -11 8 -21 -1 -18 -15 -18 -29 3 -44
9 -7 13 -17 9 -23 -10 -16 -36 -3 -36 18 0 24 -18 36 -33 21 -8 -8 -8 -14 1
-23 7 -7 12 -15 12 -19 0 -7 -19 2 -83 38 -12 7 -22 22 -22 35 0 18 -5 22 -23
21 -13 -2 -21 1 -17 6 3 6 -1 13 -9 18 -8 4 -14 17 -13 28 1 11 -2 20 -8 21
-5 0 -17 3 -25 7 -31 13 -46 11 -67 -8 -28 -24 -29 -31 -3 -38 22 -6 28 -27 7
-27 -7 0 -18 5 -25 12 -9 9 -12 3 -12 -29 0 -50 -17 -67 -54 -53 -14 5 -26 15
-26 22 0 6 -6 4 -13 -7 -8 -10 -19 -15 -26 -11 -6 4 -14 1 -17 -8 -4 -12 -11
-12 -37 -4 -48 17 -111 88 -78 88 5 0 11 -4 13 -10 2 -5 8 2 15 15 10 22 8 27
-9 36 -13 7 -23 7 -32 0 -11 -9 -12 -6 -8 15 4 24 3 25 -32 18 -33 -6 -37 -4
-34 12 3 16 -4 19 -48 22 -50 3 -51 3 -49 -26 1 -15 5 -34 9 -40 13 -21 -4
-33 -26 -18 -11 8 -27 12 -34 9 -16 -6 -19 13 -4 22 12 7 4 25 -11 25 -5 0 -9
-20 -9 -45 0 -45 -5 -50 -34 -39 -22 8 -20 21 5 27 18 5 19 8 7 26 -15 24 -28
27 -28 7 0 -28 -40 -106 -54 -106 -19 0 -29 29 -15 46 15 19 -9 19 -33 0 -17
-12 -17 -14 2 -31 14 -13 20 -31 20 -59 0 -23 7 -51 15 -63 15 -21 14 -22 -14
-21 -22 1 -31 6 -33 22 -5 35 -34 30 -58 -8 -20 -33 -25 -36 -71 -36 -28 0
-59 5 -69 10 -13 7 -21 7 -26 -2 -4 -6 -2 -14 4 -16 6 -2 9 -9 6 -16 -3 -8 2
-16 10 -19 9 -4 16 -14 16 -23 0 -12 -5 -14 -17 -9 -10 5 -26 8 -35 9 -10 0
-18 4 -18 8 0 4 -10 8 -22 8 -13 0 -18 3 -12 8 6 4 27 29 47 55 20 27 68 80
107 118 38 38 70 70 70 72 0 2 18 23 40 47 22 24 40 47 40 51 0 4 9 11 20 14
11 3 20 12 20 20 0 7 7 15 15 19 25 9 17 -10 -25 -55 -22 -24 -40 -48 -40 -53
0 -5 -7 -18 -17 -28 -36 -40 1 -14 52 37 30 30 55 52 55 50 0 -3 9 4 20 15 11
11 17 26 14 33 -3 8 6 18 21 25 27 13 34 32 10 32 -8 0 -15 -5 -15 -11 0 -5
-5 -7 -11 -4 -7 5 -5 13 5 24 9 10 16 23 16 30 0 9 11 11 43 6 51 -9 57 -12
57 -31 0 -22 26 -17 43 10 21 31 60 37 102 16 29 -15 36 -15 46 -4 14 17 86
18 92 2 7 -23 -16 -60 -34 -55 -12 3 -19 -3 -23 -19 -4 -13 -18 -30 -33 -37
-32 -17 -15 -31 21 -17 17 6 26 17 26 30 0 15 5 20 18 18 12 -2 16 -11 14 -31
-3 -19 1 -27 13 -27 19 0 34 32 17 38 -9 3 -9 9 -1 24 10 18 12 18 29 3 16
-14 18 -14 23 0 4 8 16 15 27 15 13 0 20 7 20 20 0 12 -7 20 -16 20 -9 0 -18
-9 -21 -20 -7 -26 -40 -26 -48 0 -10 30 3 42 37 35 21 -5 28 -4 24 4 -5 8 17
11 73 11 l81 0 -12 -25 c-13 -29 -10 -34 23 -37 20 -3 24 1 23 22 -2 23 6 28
80 53 109 39 136 43 136 24 0 -9 -9 -19 -20 -22 -27 -9 -25 -19 5 -33 37 -17
39 -16 64 28 l22 40 -30 0 c-17 0 -31 5 -31 10 0 6 7 10 15 10 8 0 15 5 15 10
0 6 6 10 14 10 15 0 94 98 121 150 38 74 52 177 35 263 -25 131 -98 235 -203
288 -42 22 -53 40 -41 67 8 18 7 239 -2 285 l-6 27 -149 0 -149 0 0 -150z
m160 -155 c0 -10 -11 -15 -35 -15 -24 0 -35 5 -35 15 0 10 11 15 35 15 24 0
35 -5 35 -15z m759 -610 c10 -126 6 -145 -30 -145 -26 0 -40 31 -30 67 5 16
12 123 16 238 4 116 10 215 14 220 3 6 9 -51 13 -125 4 -74 12 -189 17 -255z
m-538 292 c30 -63 33 -183 6 -233 -25 -48 -75 -94 -102 -94 -13 0 -27 -4 -30
-10 -12 -19 -33 -10 -40 18 -4 15 -9 50 -11 77 -2 28 -6 75 -8 105 -3 30 -8
63 -11 73 -7 18 -7 18 65 22 19 1 45 7 58 14 19 10 21 17 16 51 -6 35 -5 38
13 34 12 -3 30 -27 44 -57z m-241 -75 c0 -9 7 -35 15 -57 8 -22 14 -59 15 -82
0 -23 5 -64 12 -92 8 -38 8 -53 0 -64 -18 -22 -109 -29 -142 -12 -30 16 -46
55 -27 67 7 4 8 8 3 8 -5 0 -17 -7 -27 -16 -10 -9 -25 -14 -33 -11 -12 5 -12
11 -2 41 7 20 15 39 19 42 4 4 7 15 7 25 0 9 6 19 14 22 8 3 17 24 21 46 3 21
13 42 21 45 9 3 12 11 9 16 -12 19 14 37 55 38 32 2 40 -2 40 -16z m904 -416
c-3 -9 3 -17 15 -21 12 -3 21 -15 21 -26 0 -10 4 -19 9 -19 9 0 61 -46 61 -54
0 -2 -9 -2 -21 1 -12 3 -25 0 -29 -7 -6 -9 -10 -6 -15 11 -13 43 -26 52 -46
33 -17 -15 -19 -15 -19 -1 0 9 5 19 10 22 18 11 11 35 -10 35 -12 0 -24 -10
-30 -24 -13 -36 -30 -42 -30 -10 0 15 10 38 22 51 24 26 71 32 62 9z m96 -21
c13 -16 8 -18 -27 -9 -13 4 -23 10 -23 15 0 15 37 10 50 -6z m40 -60 c0 -9 -6
-12 -15 -9 -8 4 -15 10 -15 15 0 5 7 9 15 9 8 0 15 -7 15 -15z m480 -19 c0
-14 5 -28 10 -31 6 -3 10 -14 10 -25 0 -10 8 -21 18 -25 16 -6 16 -7 -2 -20
-16 -12 -21 -11 -36 8 -13 16 -15 24 -7 30 9 6 9 10 0 14 -15 6 -18 73 -3 73
6 0 10 -11 10 -24z m143 -32 c15 -14 25 -29 22 -34 -7 -11 40 -24 54 -15 6 3
11 2 11 -3 0 -6 -7 -12 -15 -16 -8 -3 -15 -12 -15 -20 0 -15 -50 -29 -63 -17
-5 5 0 16 9 26 16 16 16 18 1 27 -9 5 -17 16 -17 23 0 8 -6 15 -14 15 -18 0
-29 16 -21 30 9 15 18 12 48 -16z m-803 1 c0 -8 -9 -15 -20 -15 -20 0 -26 11
-13 23 12 13 33 7 33 -8z m69 1 c8 -10 8 -16 -1 -24 -16 -13 -54 11 -43 27 9
15 30 14 44 -3z m-869 -40 c0 -11 -19 -15 -25 -6 -3 5 1 10 9 10 9 0 16 -2 16
-4z m127 -2 c-3 -3 -12 -4 -19 -1 -8 3 -5 6 6 6 11 1 17 -2 13 -5z m-47 -26
c23 -17 33 -19 42 -10 7 7 23 12 36 12 35 0 25 -32 -12 -36 -16 -2 -33 -7 -39
-13 -14 -14 -48 5 -41 24 4 8 -1 18 -10 21 -9 3 -16 10 -16 15 0 14 8 11 40
-13z m737 5 c3 -7 16 -13 28 -13 15 0 26 -8 30 -21 10 -31 -4 -37 -25 -9 -10
14 -22 21 -26 17 -4 -4 -13 -2 -20 4 -8 7 -19 7 -31 1 -11 -6 -27 -6 -43 0
-24 9 -24 10 -6 23 23 18 86 16 93 -2z m-135 -38 c-2 -27 2 -41 15 -50 10 -7
21 -11 25 -9 4 3 12 -5 18 -17 9 -16 18 -19 36 -15 l25 7 -22 -31 c-27 -36
-39 -38 -39 -6 0 18 -9 28 -30 38 -38 16 -58 55 -52 97 6 45 28 33 24 -14z
m891 20 c-5 -16 -33 -21 -33 -7 0 13 22 32 31 26 5 -2 6 -11 2 -19z m-453 -5
c0 -5 -4 -10 -10 -10 -5 0 -10 5 -10 10 0 6 5 10 10 10 6 0 10 -4 10 -10z
m-140 -15 c0 -8 -9 -15 -21 -15 -11 0 -18 -4 -15 -8 2 -4 1 -14 -4 -22 -8 -12
-13 -11 -30 8 l-21 22 24 0 c14 0 30 7 37 15 7 8 16 15 21 15 5 0 9 -7 9 -15z
m223 -49 c-15 -5 -23 -14 -21 -25 2 -9 7 -15 11 -13 4 1 16 2 27 2 15 0 20 7
21 28 l1 27 9 -29 c10 -37 -4 -58 -36 -50 -13 3 -26 1 -30 -6 -4 -6 -15 -8
-26 -5 -15 5 -19 1 -19 -14 0 -23 -24 -28 -50 -11 -13 9 -11 13 10 30 14 11
30 18 36 16 6 -3 17 8 24 22 7 15 16 34 21 42 5 8 12 23 16 34 5 16 8 15 18
-10 11 -27 10 -30 -12 -38z m-1753 -20 c0 -25 -17 -37 -43 -30 -24 5 -27 11
-27 51 l0 44 35 -27 c19 -14 35 -31 35 -38z m594 58 c9 -3 16 -17 16 -29 0
-46 -33 -39 -38 8 -3 29 -2 30 22 21z m1241 -4 c3 -5 2 -10 -4 -10 -5 0 -13 5
-16 10 -3 6 -2 10 4 10 5 0 13 -4 16 -10z m195 1 c0 -17 -18 -21 -24 -6 -3 9
0 15 9 15 8 0 15 -4 15 -9z m-360 -20 c0 -11 -4 -23 -10 -26 -6 -4 -10 5 -10
19 0 14 5 26 10 26 6 0 10 -9 10 -19z m-510 -16 c0 -15 -34 -38 -43 -29 -9 9
16 44 30 44 7 0 13 -7 13 -15z m1058 -8 c2 -12 -3 -17 -17 -17 -23 0 -24 1
-15 25 8 19 28 15 32 -8z m372 7 c0 -9 -9 -18 -20 -21 -10 -3 -22 -14 -25 -24
-4 -10 -11 -19 -16 -19 -5 0 -9 -6 -9 -14 0 -9 14 -13 53 -12 50 1 52 0 55
-26 2 -20 -1 -28 -12 -28 -9 0 -16 9 -16 20 0 37 -35 22 -75 -34 -47 -65 -84
-83 -116 -56 -11 11 -18 24 -14 30 8 12 46 3 57 -14 4 -6 10 -3 14 9 5 11 14
26 21 33 17 17 17 62 1 62 -7 1 -3 9 10 19 12 11 22 25 22 32 0 17 40 59 57
59 7 0 13 -7 13 -16z m-1037 0 c3 -4 1 -16 -5 -27 -9 -18 -11 -19 -20 -4 -13
25 6 49 25 31z m613 -21 c-10 -10 -19 5 -10 18 6 11 8 11 12 0 2 -7 1 -15 -2
-18z m-196 8 c0 -11 -19 -24 -37 -27 -14 -2 -18 18 -6 29 10 10 43 8 43 -2z
m-496 -16 c-4 -8 -12 -15 -20 -15 -17 0 -18 17 -1 23 22 9 27 7 21 -8z m667 5
c13 -7 19 -21 19 -43 l-1 -32 -24 30 c-23 28 -33 55 -19 55 3 0 14 -5 25 -10z
m666 -41 c3 -45 -13 -49 -34 -8 -10 19 -9 27 4 41 21 23 27 16 30 -33z m-1593
16 c8 -32 -9 -65 -34 -65 -11 0 -20 4 -20 9 0 9 30 25 43 23 12 -3 8 15 -8 28
-8 6 -19 9 -24 5 -7 -3 -8 0 -5 9 10 25 41 19 48 -9z m884 -49 c14 -35 13 -37
-14 -30 -25 6 -45 37 -49 76 l-4 29 28 -23 c15 -13 33 -36 39 -52z m-1644 49
c-4 -10 3 -18 20 -25 16 -6 26 -17 26 -30 0 -19 -4 -20 -36 -14 -25 4 -35 3
-30 -4 4 -6 -2 -8 -14 -5 -11 3 -23 10 -26 15 -3 5 -12 1 -19 -9 -21 -29 -26
-10 -7 29 17 37 42 56 74 57 11 1 15 -4 12 -14z m356 -8 c0 -23 -17 -47 -32
-47 -10 0 -11 54 -1 63 14 15 33 6 33 -16z m1500 3 c0 -11 -4 -20 -10 -20 -5
0 -10 9 -10 20 0 11 5 20 10 20 6 0 10 -9 10 -20z m-2435 1 c10 -18 -17 -23
-33 -7 -15 15 -15 16 5 16 12 0 24 -4 28 -9z m2339 -26 c-4 -8 -10 -15 -15
-15 -5 0 -9 7 -9 15 0 8 7 15 15 15 9 0 12 -6 9 -15z m-2234 -16 c0 -5 -9 -9
-19 -9 -11 0 -27 -9 -35 -21 -8 -12 -19 -18 -25 -14 -16 10 -13 35 4 35 9 0
18 6 21 14 5 14 54 10 54 -5z m1946 -4 c25 -38 11 -62 -34 -61 -30 2 -38 6
-40 24 -2 14 5 30 20 42 30 25 34 25 54 -5z m-2112 6 c3 -5 -1 -14 -9 -21 -8
-7 -15 -17 -15 -22 0 -5 -7 -16 -15 -24 -13 -14 -16 -14 -22 2 -4 10 -2 19 5
22 7 2 12 12 12 22 0 24 33 39 44 21z m1796 -1 c0 -5 -2 -10 -4 -10 -3 0 -8 5
-11 10 -3 6 -1 10 4 10 6 0 11 -4 11 -10z m1380 -16 c0 -8 -4 -12 -10 -9 -5 3
-10 13 -10 21 0 8 5 12 10 9 6 -3 10 -13 10 -21z m-1617 4 c5 -16 -10 -48 -23
-48 -11 0 -14 43 -3 53 10 11 21 8 26 -5z m887 -13 c0 -13 -8 -29 -18 -34 -24
-13 -62 -3 -62 16 0 11 7 13 25 9 18 -5 27 -1 35 14 14 27 20 25 20 -5z
m-2181 1 c12 -15 5 -66 -9 -66 -5 0 -12 9 -15 20 -10 32 -35 25 -35 -10 0 -20
-5 -30 -15 -30 -9 0 -15 9 -15 25 0 14 -5 25 -12 25 -18 0 22 38 46 43 39 8
43 7 55 -7z m1699 -13 c2 -11 -4 -27 -12 -36 -9 -9 -16 -25 -16 -36 0 -12 -4
-21 -10 -21 -5 0 -10 7 -10 15 0 9 -9 15 -21 15 -16 0 -20 -5 -16 -20 4 -17 2
-18 -14 -9 -11 5 -17 14 -13 20 3 5 1 16 -5 23 -8 9 -4 19 16 37 20 18 25 20
20 7 -11 -29 31 -22 45 7 13 29 32 28 36 -2z m232 -18 c0 -8 -4 -15 -10 -15
-5 0 -10 7 -10 15 0 8 5 15 10 15 6 0 10 -7 10 -15z m-2073 -32 c-11 -13 -13
-23 -6 -35 13 -23 -8 -65 -23 -50 -7 7 -16 7 -28 0 -15 -10 -16 -14 -5 -25 8
-7 23 -13 34 -13 12 0 21 -3 21 -6 0 -11 -24 -49 -46 -73 l-24 -26 -25 27
c-14 15 -25 32 -25 38 0 6 -4 9 -9 6 -5 -4 -20 -1 -33 4 -18 8 -13 10 29 7 39
-3 53 0 58 10 8 21 -4 35 -25 28 -14 -4 -19 2 -25 31 -8 44 9 69 29 42 13 -18
31 -12 31 12 0 8 6 14 13 12 7 -1 23 9 35 22 13 15 26 21 31 16 6 -6 3 -16 -7
-27z m268 17 c18 -19 17 -21 -18 -55 -39 -38 -73 -50 -41 -14 10 11 19 28 19
37 4 60 10 65 40 32z m140 10 c7 -12 -72 -96 -81 -87 -4 4 0 15 9 25 10 10 17
25 17 33 0 30 41 52 55 29z m545 0 c0 -17 -36 -70 -43 -63 -12 12 -7 36 11 54
19 20 32 24 32 9z m1493 3 c10 -9 -54 -63 -75 -63 -11 0 -18 7 -18 20 0 13 7
20 18 20 10 0 27 7 38 15 22 16 28 18 37 8z m-1096 -15 c20 -26 24 -66 7 -72
-14 -5 -15 -1 -10 28 6 31 5 33 -19 28 -25 -4 -35 12 -12 21 20 8 24 8 34 -5z
m1288 -12 c-9 -13 -23 -27 -30 -30 -17 -6 -9 -35 14 -53 14 -11 14 -12 -1 -13
-42 0 -45 77 -5 105 31 22 40 18 22 -9z m-2745 -7 c0 -5 -4 -9 -10 -9 -5 0
-10 7 -10 16 0 8 5 12 10 9 6 -3 10 -10 10 -16z m880 -4 c0 -8 -4 -15 -10 -15
-5 0 -10 7 -10 15 0 8 5 15 10 15 6 0 10 -7 10 -15z m80 -1 c0 -8 -4 -12 -10
-9 -5 3 -10 10 -10 16 0 5 5 9 10 9 6 0 10 -7 10 -16z m-365 -44 c-5 -35 -3
-50 5 -50 6 0 8 -5 4 -11 -4 -7 -9 -7 -13 -2 -3 5 -14 12 -23 16 -24 9 -23 34
2 47 15 8 19 17 15 31 -4 11 -2 19 5 19 8 0 10 -15 5 -50z m184 39 c15 -10 16
-16 7 -35 -14 -30 -50 -41 -43 -13 3 12 1 17 -6 12 -7 -4 -8 0 -4 11 4 10 7
22 7 27 0 12 16 11 39 -2z m826 -14 c0 -12 -10 -21 -27 -26 -37 -10 -47 9 -17
32 28 22 44 20 44 -6z m495 9 c0 -8 -4 -12 -10 -9 -5 3 -10 10 -10 16 0 5 5 9
10 9 6 0 10 -7 10 -16z m-1436 0 c25 -9 19 -24 -9 -24 -16 0 -25 6 -25 15 0
16 9 19 34 9z m586 -4 c0 -5 -7 -10 -16 -10 -8 0 -12 5 -9 10 3 6 10 10 16 10
5 0 9 -4 9 -10z m545 -10 c-3 -5 -13 -6 -21 -3 -12 4 -13 8 -3 14 15 9 32 2
24 -11z m-513 -5 c0 -5 -5 -11 -11 -13 -6 -2 -11 4 -11 13 0 9 5 15 11 13 6
-2 11 -8 11 -13z m1103 5 c-3 -5 -10 -10 -16 -10 -5 0 -9 5 -9 10 0 6 7 10 16
10 8 0 12 -4 9 -10z m-2425 -6 c0 -14 -32 -35 -48 -31 -14 4 -14 6 6 12 12 4
22 11 22 16 0 5 5 9 10 9 6 0 10 -3 10 -6z m3179 -16 c27 3 30 1 28 -25 -1
-20 4 -30 21 -38 23 -10 30 -25 11 -25 -6 0 -8 -8 -4 -19 5 -15 1 -18 -20 -13
-31 5 -49 35 -41 68 7 28 1 29 -50 8 -34 -14 -37 -17 -21 -29 28 -20 19 -29
-10 -10 -24 16 -27 16 -38 1 -15 -20 -35 -21 -35 -1 0 20 -16 19 -24 -2 -6
-15 -10 -13 -31 12 -29 33 -33 60 -8 51 10 -4 23 1 35 13 14 16 23 18 42 11
13 -4 27 -5 32 0 13 13 68 16 76 5 4 -5 21 -8 37 -7z m-2733 -3 c3 -8 2 -20
-2 -27 -5 -7 -9 -15 -10 -18 -7 -38 -34 -53 -34 -20 0 11 5 20 10 20 6 0 10
14 10 30 0 31 16 41 26 15z m-156 -1 c0 -4 -7 -12 -16 -19 -14 -10 -14 -15 -3
-33 15 -24 7 -37 -17 -28 -11 4 -15 14 -11 32 3 17 -1 28 -11 32 -13 5 -12 7
4 13 24 10 54 11 54 3z m2104 -9 c-6 -16 -24 -21 -24 -7 0 11 11 22 21 22 5 0
6 -7 3 -15z m-1464 -5 c12 -8 11 -10 -7 -10 -13 0 -23 5 -23 10 0 13 11 13 30
0z m-386 -32 c3 -17 4 -33 1 -36 -3 -3 -5 3 -5 12 0 12 -5 16 -14 13 -8 -3
-17 1 -20 9 -10 26 -7 34 13 34 13 0 20 -10 25 -32z m2172 16 c18 -15 18 -15
-11 -9 -37 8 -57 25 -29 25 11 0 29 -7 40 -16z m-2236 -25 c0 -12 -5 -19 -11
-17 -6 2 -10 7 -10 11 1 4 1 14 1 23 0 8 5 12 10 9 6 -3 10 -15 10 -26z m-580
11 c0 -5 -13 -16 -30 -25 -33 -17 -38 -11 -13 17 17 19 43 24 43 8z m880 -4
c0 -8 -7 -16 -15 -20 -13 -4 -14 -2 -5 14 13 23 20 26 20 6z m1035 4 c-3 -5
-11 -10 -16 -10 -6 0 -7 5 -4 10 3 6 11 10 16 10 6 0 7 -4 4 -10z m405 -21 c0
-5 -4 -9 -10 -9 -5 0 -10 7 -10 16 0 8 5 12 10 9 6 -3 10 -10 10 -16z m-2450
1 c0 -5 -7 -10 -15 -10 -8 0 -15 5 -15 10 0 6 7 10 15 10 8 0 15 -4 15 -10z
m431 -5 c-1 -15 -24 -12 -29 3 -3 9 2 13 12 10 10 -1 17 -7 17 -13z m2199 -10
c0 -8 -4 -15 -10 -15 -5 0 -10 7 -10 15 0 8 5 15 10 15 6 0 10 -7 10 -15z
m364 -4 c15 -17 15 -19 1 -25 -9 -3 -14 -10 -10 -15 9 -15 -12 -22 -23 -8 -11
13 -5 67 8 67 4 0 15 -8 24 -19z m-3206 -14 c3 -12 -4 -17 -22 -17 -27 0 -37
24 -13 33 19 8 32 2 35 -16z m962 -8 c0 -10 -4 -19 -10 -19 -5 0 -10 12 -10
26 0 14 4 23 10 19 6 -3 10 -15 10 -26z m100 6 c-28 -29 -50 -32 -50 -7 0 26
9 32 43 32 l30 0 -23 -25z m2310 -4 c0 -5 -9 -11 -20 -14 -22 -6 -26 3 -8 21
11 11 28 7 28 -7z m-70 -24 c-1 -21 -1 -21 -15 -3 -8 10 -12 23 -9 28 9 14 24
-2 24 -25z m-2914 8 c18 -18 10 -37 -13 -28 -13 5 -15 2 -11 -15 7 -27 -14
-46 -42 -37 -16 5 -18 10 -10 20 8 10 7 14 -2 17 -8 3 -5 9 10 17 12 6 22 18
22 26 0 19 27 19 46 0z m514 -32 c0 -7 -4 -13 -8 -13 -15 0 -32 24 -32 44 0
18 1 19 20 1 11 -10 20 -24 20 -32z m-754 26 c10 -17 -13 -36 -27 -22 -12 12
-4 33 11 33 5 0 12 -5 16 -11z m2786 -1 c-9 -9 -15 -9 -24 0 -9 9 -7 12 12 12
19 0 21 -3 12 -12z m-2962 -31 c0 -5 9 -6 19 -2 16 5 18 2 14 -15 -6 -23 -43
-48 -43 -29 0 6 -9 9 -20 6 -13 -3 -20 0 -20 9 0 8 5 14 10 14 6 0 10 8 10 17
0 13 -3 14 -12 5 -7 -7 -16 -12 -20 -12 -13 0 -9 28 4 32 15 5 58 -14 58 -25z
m298 8 c-3 -28 -7 -30 -43 -13 -34 15 -32 26 8 31 17 2 33 5 34 5 2 1 2 -9 1
-23z m3211 15 c10 0 1 -69 -10 -76 -5 -2 -11 8 -15 23 -3 15 -8 37 -11 47 -4
15 -1 18 12 13 9 -4 20 -7 24 -7z m71 2 c0 -13 -12 -22 -22 -16 -10 6 -1 24
13 24 5 0 9 -4 9 -8z m214 2 c26 -10 20 -25 -28 -74 -10 -11 -24 -16 -29 -13
-6 3 -1 10 11 14 29 11 28 33 -4 58 l-27 21 31 0 c17 0 37 -3 46 -6z m-3049
-24 c14 -16 15 -20 4 -20 -16 0 -39 19 -39 32 0 14 16 9 35 -12z m2939 4 c8
-21 8 -94 -1 -94 -3 0 -15 7 -24 16 -14 13 -16 21 -8 35 5 11 7 24 4 29 -7 11
2 30 15 30 4 0 11 -7 14 -16z m-2484 -4 c0 -5 -6 -10 -14 -10 -8 0 -18 5 -21
10 -3 6 3 10 14 10 12 0 21 -4 21 -10z m-526 -15 c16 -12 17 -15 4 -15 -24 0
-48 11 -48 21 0 13 23 10 44 -6z m2245 -29 c-9 -8 -10 -7 -5 7 3 10 7 24 7 30
1 7 3 4 6 -7 3 -10 -1 -23 -8 -30z m429 8 c2 -28 2 -28 -13 -10 -18 24 -20 49
-2 44 6 -3 13 -18 15 -34z m-3234 11 c-6 -16 -24 -21 -24 -7 0 11 11 22 21 22
5 0 6 -7 3 -15z m2146 5 c0 -5 -4 -10 -10 -10 -5 0 -10 5 -10 10 0 6 5 10 10
10 6 0 10 -4 10 -10z m830 0 c0 -5 -4 -10 -10 -10 -5 0 -10 5 -10 10 0 6 5 10
10 10 6 0 10 -4 10 -10z m190 -6 c0 -8 -4 -12 -10 -9 -5 3 -10 10 -10 16 0 5
5 9 10 9 6 0 10 -7 10 -16z m-2462 -12 c3 -9 -2 -13 -14 -10 -9 1 -19 9 -22
16 -3 9 2 13 14 10 9 -1 19 -9 22 -16z m-548 -17 c0 -14 -4 -25 -10 -25 -11 0
-14 33 -3 43 11 11 13 8 13 -18z m2555 15 c3 -5 -1 -10 -9 -10 -9 0 -16 5 -16
10 0 6 4 10 9 10 6 0 13 -4 16 -10z m-2885 -27 c0 -11 7 -13 24 -9 16 4 26 1
29 -8 7 -17 -1 -26 -24 -26 -9 0 -19 -10 -23 -22 -5 -22 -6 -22 -20 -3 -14 19
-15 19 -16 2 0 -10 -5 -17 -11 -15 -6 2 -10 7 -10 11 0 15 14 82 18 89 6 12
33 -3 33 -19z m520 -21 c0 -27 -3 -33 -12 -24 -16 16 -17 71 0 65 6 -3 12 -21
12 -41z m-339 15 c-13 -13 -26 -3 -16 12 3 6 11 8 17 5 6 -4 6 -10 -1 -17z
m463 1 c18 -26 21 -48 6 -48 -5 0 -10 7 -10 15 0 8 -9 20 -20 27 -23 15 -26
28 -6 28 8 0 22 -10 30 -22z m361 12 c3 -5 1 -10 -4 -10 -6 0 -11 5 -11 10 0
6 2 10 4 10 3 0 8 -4 11 -10z m-750 -10 c3 -5 1 -10 -4 -10 -6 0 -11 5 -11 10
0 6 2 10 4 10 3 0 8 -4 11 -10z m110 0 c3 -5 1 -10 -4 -10 -6 0 -11 5 -11 10
0 6 2 10 4 10 3 0 8 -4 11 -10z m2250 0 c3 -6 -1 -13 -10 -16 -19 -8 -30 0
-20 15 8 14 22 14 30 1z m845 6 c0 -2 -6 -16 -14 -30 -12 -24 -15 -25 -27 -10
-11 14 -10 18 6 30 18 13 35 18 35 10z m-3548 -54 c-6 -2 -14 -30 -18 -63 -6
-54 -9 -59 -30 -59 -19 0 -24 -5 -24 -25 0 -18 5 -25 20 -25 13 0 18 -5 14
-15 -4 -8 -15 -15 -26 -15 -13 0 -18 5 -15 14 4 9 -5 21 -19 31 -20 13 -23 19
-13 31 6 8 18 14 25 14 9 0 14 11 14 31 0 19 4 28 11 23 7 -4 9 2 7 15 -3 23
54 78 61 58 2 -6 -1 -13 -7 -15z m232 13 c-4 -8 1 -17 10 -21 26 -10 20 -38
-6 -30 -13 4 -29 8 -36 10 -26 5 -11 56 17 56 14 0 19 -5 15 -15z m4119 -11
c-6 -17 -23 -9 -23 11 0 8 6 12 14 9 8 -3 12 -12 9 -20z m-4064 -5 c-16 -10
-23 -4 -14 10 3 6 11 8 17 5 6 -4 5 -9 -3 -15z m3191 1 c0 -12 -28 -25 -36
-17 -9 9 6 27 22 27 8 0 14 -5 14 -10z m270 6 c0 -2 -7 -6 -15 -10 -8 -3 -15
-1 -15 4 0 6 7 10 15 10 8 0 15 -2 15 -4z m-86 -28 c3 3 6 1 6 -5 0 -6 -6 -16
-14 -22 -10 -9 -15 -8 -20 4 -3 8 -12 15 -20 15 -7 0 -16 7 -20 15 -5 13 -1
13 28 1 19 -8 37 -12 40 -8z m222 -2 c9 -19 8 -25 -7 -35 -11 -6 -26 -11 -34
-11 -27 0 -87 29 -80 39 3 7 19 4 40 -6 28 -14 37 -14 50 -3 9 7 14 19 11 27
-9 23 9 14 20 -11z m-3127 -28 c-1 -37 -2 -39 -9 -18 -12 36 -12 60 0 60 6 0
10 -19 9 -42z m2796 32 c-3 -5 -13 -10 -21 -10 -8 0 -14 5 -14 10 0 6 9 10 21
10 11 0 17 -4 14 -10z m525 -11 c0 -5 -4 -9 -10 -9 -5 0 -10 7 -10 16 0 8 5
12 10 9 6 -3 10 -10 10 -16z m200 11 c0 -5 -7 -10 -15 -10 -8 0 -15 5 -15 10
0 6 7 10 15 10 8 0 15 -4 15 -10z m-1017 -30 c7 -29 -13 -43 -35 -24 -13 12
-15 21 -8 35 12 22 36 15 43 -11z m732 20 c3 -5 -3 -10 -15 -10 -12 0 -18 5
-15 10 3 6 10 10 15 10 5 0 12 -4 15 -10z m-3185 -15 c0 -8 -6 -15 -14 -15
-20 0 -29 17 -14 23 22 9 28 7 28 -8z m-705 -32 c19 -20 35 -44 35 -55 0 -19
-16 -25 -22 -8 -3 9 -27 16 -71 19 -12 1 6 81 18 81 2 0 20 -16 40 -37z m380
6 c10 -15 -1 -23 -20 -15 -9 3 -13 10 -10 16 8 13 22 13 30 -1z m135 -19 c0
-5 -4 -10 -10 -10 -5 0 -10 5 -10 10 0 6 5 10 10 10 6 0 10 -4 10 -10z m3645
-10 c10 -16 -15 -40 -41 -40 -30 0 -31 14 -2 34 26 19 35 20 43 6z m-486 -9
c9 -6 10 -11 2 -15 -13 -8 -31 1 -31 15 0 11 11 11 29 0z m106 -1 c3 -5 1 -10
-4 -10 -6 0 -11 5 -11 10 0 6 2 10 4 10 3 0 8 -4 11 -10z m229 -9 c9 -10 14
-25 10 -35 -7 -18 -20 -21 -29 -6 -4 6 -21 8 -41 4 -27 -5 -34 -3 -34 10 0 12
6 15 24 10 19 -4 26 -1 31 15 8 26 17 26 39 2z m-166 -9 c2 -7 -5 -15 -15 -18
-10 -3 -26 -10 -35 -15 -27 -14 -23 16 4 35 24 17 39 17 46 -2z m-3855 -32 c4
-17 3 -19 -9 -9 -8 6 -14 18 -14 26 0 20 16 8 23 -17z m3447 16 c0 -8 -4 -17
-9 -20 -10 -7 -23 19 -14 28 11 11 23 6 23 -8z m641 4 c5 0 9 -5 9 -11 0 -15
-43 -7 -48 10 -3 10 0 12 12 8 10 -4 22 -7 27 -7z m204 -27 c-3 -21 -10 -41
-13 -44 -11 -11 -50 8 -61 30 -11 20 2 40 14 21 11 -18 35 -11 35 10 0 12 7
20 16 20 13 0 15 -7 9 -37z m-4345 -7 c0 -3 -4 -8 -10 -11 -5 -3 -10 -1 -10 4
0 6 5 11 10 11 6 0 10 -2 10 -4z m4260 -25 c16 -31 12 -59 -10 -71 -29 -16
-43 -3 -25 22 10 16 11 25 4 34 -11 14 -4 34 11 34 5 0 14 -9 20 -19z m-666
-2 c14 -7 23 -16 20 -20 -6 -10 -54 10 -54 23 0 11 4 10 34 -3z m534 -6 c6
-19 -28 -29 -39 -12 -5 8 -9 18 -9 22 0 13 43 3 48 -10z m-4365 -18 c2 -14 2
-24 0 -21 -3 3 -15 1 -28 -4 -23 -9 -23 -9 -7 20 21 37 28 37 35 5z m4115 -6
c-6 -17 -22 -12 -30 10 -7 19 -5 20 13 11 11 -6 19 -16 17 -21z m-3678 12 c0
-10 -30 -24 -37 -17 -3 3 -2 9 2 15 8 13 35 15 35 2z m3560 -11 c0 -5 -5 -10
-11 -10 -5 0 -7 5 -4 10 3 6 8 10 11 10 2 0 4 -4 4 -10z m-3840 -10 c0 -5 -2
-10 -4 -10 -3 0 -8 5 -11 10 -3 6 -1 10 4 10 6 0 11 -4 11 -10z m210 -10 c0
-5 -4 -10 -10 -10 -5 0 -10 5 -10 10 0 6 5 10 10 10 6 0 10 -4 10 -10z m278
-21 c-3 -8 -7 -3 -11 10 -4 17 -3 21 5 13 5 -5 8 -16 6 -23z m3286 10 c-3 -5
-10 -7 -15 -3 -5 3 -7 10 -3 15 3 5 10 7 15 3 5 -3 7 -10 3 -15z m425 2 c8
-14 7 -22 -4 -31 -13 -11 -15 -8 -15 19 0 36 5 39 19 12z m239 -4 c5 8 11 4
18 -11 10 -20 8 -22 -23 -23 -34 -1 -38 3 -27 32 5 13 9 14 15 3 7 -10 11 -10
17 -1z m-4558 -1 c0 -11 -19 -15 -25 -6 -3 5 1 10 9 10 9 0 16 -2 16 -4z m87
-50 c-2 -26 -4 -27 -39 -22 -20 3 -40 2 -43 -4 -9 -15 -45 -12 -45 3 0 17 73
41 78 27 2 -6 9 -10 15 -10 8 0 8 3 -1 12 -8 8 -8 17 -1 30 8 16 12 16 24 5 7
-8 12 -26 12 -41z m-220 4 c-10 -15 -17 -18 -22 -10 -4 6 1 20 11 31 23 25 31
8 11 -21z m4184 -14 c12 -13 11 -26 -1 -26 -5 0 -10 7 -10 15 0 8 -3 14 -7 14
-20 -3 -23 3 -11 24 12 21 12 21 16 2 2 -11 8 -24 13 -29z m429 5 c0 -11 -31
-24 -39 -16 -3 3 1 10 9 15 19 12 30 12 30 1z m105 -19 c-3 -3 -11 0 -18 7 -9
10 -8 11 6 5 10 -3 15 -9 12 -12z m-4417 -10 c2 -7 -3 -12 -12 -12 -9 0 -16 7
-16 16 0 17 22 14 28 -4z m3732 14 c0 -3 -4 -8 -10 -11 -5 -3 -10 -1 -10 4 0
6 5 11 10 11 6 0 10 -2 10 -4z m54 -27 c-8 -14 -24 -10 -24 6 0 9 6 12 15 9 8
-4 12 -10 9 -15z m466 6 c0 -8 0 -18 1 -22 0 -4 -4 -9 -9 -11 -12 -4 -24 26
-16 39 8 14 24 11 24 -6z m-4602 -18 c4 -19 -6 -21 -27 -8 -16 10 -5 34 12 28
7 -2 13 -11 15 -20z m4488 8 c-24 -18 -36 -19 -36 -2 0 7 12 14 28 15 26 1 26
1 8 -13z m-142 -1 c20 -8 21 -40 2 -47 -14 -6 -26 12 -26 39 0 16 2 16 24 8z
m-4060 -39 c16 -12 17 -15 4 -15 -26 0 -48 11 -42 21 7 12 16 11 38 -6z m4241
-5 c-3 -5 -10 -10 -16 -10 -5 0 -9 5 -9 10 0 6 7 10 16 10 8 0 12 -4 9 -10z
m-4327 -12 c-3 -7 -11 -13 -18 -13 -7 0 -15 6 -17 13 -3 7 4 12 17 12 13 0 20
-5 18 -12z m4437 2 c3 -5 1 -10 -4 -10 -6 0 -11 5 -11 10 0 6 2 10 4 10 3 0 8
-4 11 -10z m-4175 -40 c0 -5 -5 -10 -11 -10 -5 0 -7 5 -4 10 3 6 8 10 11 10 2
0 4 -4 4 -10z m3855 0 c3 -5 1 -10 -4 -10 -6 0 -11 5 -11 10 0 6 2 10 4 10 3
0 8 -4 11 -10z m268 -27 c-3 -7 -9 -13 -14 -13 -11 0 -12 34 -2 43 9 10 22
-13 16 -30z m-4449 18 c3 -5 -1 -11 -9 -15 -15 -6 -29 7 -18 18 9 9 21 8 27
-3z m16 -50 c0 -12 -20 -25 -27 -18 -7 7 6 27 18 27 5 0 9 -4 9 -9z m4015 -1
c-3 -5 -10 -10 -16 -10 -5 0 -9 5 -9 10 0 6 7 10 16 10 8 0 12 -4 9 -10z
m-3655 -20 c0 -5 -5 -10 -11 -10 -5 0 -7 5 -4 10 3 6 8 10 11 10 2 0 4 -4 4
-10z m4080 -5 c0 -8 -7 -15 -15 -15 -16 0 -20 12 -8 23 11 12 23 8 23 -8z
m-422 -23 c-2 -8 -8 -17 -14 -19 -13 -4 -27 24 -19 37 9 14 36 -1 33 -18z
m-4353 -36 c-10 -14 -21 -26 -26 -26 -12 0 -11 37 2 62 10 18 13 19 26 5 13
-13 13 -18 -2 -41z m4619 -57 c-12 -20 -34 -8 -34 18 0 25 1 26 20 8 11 -10
17 -22 14 -26z m-4594 11 c0 -5 -2 -10 -4 -10 -3 0 -8 5 -11 10 -3 6 -1 10 4
10 6 0 11 -4 11 -10z m-130 -19 c0 -5 -7 -12 -16 -15 -14 -5 -15 -4 -4 9 14
17 20 19 20 6z m320 -87 c0 -8 -5 -12 -10 -9 -6 4 -8 11 -5 16 9 14 15 11 15
-7z m-310 -29 c0 -8 -4 -15 -10 -15 -5 0 -10 7 -10 15 0 8 5 15 10 15 6 0 10
-7 10 -15z m-138 -33 c-14 -2 -22 -11 -22 -23 0 -10 -6 -19 -14 -19 -28 0 -28
23 0 45 23 18 32 21 43 12 12 -10 11 -13 -7 -15z m5398 -37 c0 -8 -4 -15 -10
-15 -5 0 -10 7 -10 15 0 8 5 15 10 15 6 0 10 -7 10 -15z m43 -34 c3 -14 0 -17
-14 -14 -20 5 -24 15 -12 26 11 12 21 8 26 -12z m192 -21 c3 -5 3 -15 -1 -21
-6 -11 -23 6 -24 24 0 10 18 9 25 -3z m-35 -10 c0 -13 -23 -17 -67 -12 -62 6
-53 20 12 20 30 0 55 -4 55 -8z m255 -20 c7 -12 -2 -12 -30 0 -19 8 -19 9 2 9
12 1 25 -3 28 -9z m-5 -69 c0 -4 -7 -8 -15 -8 -16 0 -20 9 -9 20 8 8 24 -1 24
-12z m60 -116 c0 -5 -9 4 -20 20 -11 17 -20 46 -20 65 1 33 2 32 20 -20 11
-30 19 -59 20 -65z m-149 42 c-8 -8 -11 -5 -11 9 0 27 14 41 18 19 2 -9 -1
-22 -7 -28z m92 -14 c-7 -3 -13 -12 -13 -21 0 -15 2 -15 10 -2 8 12 10 11 10
-7 0 -24 22 -43 28 -25 2 7 8 10 12 7 5 -3 7 -12 3 -20 -3 -9 1 -15 11 -15 9
0 16 -7 16 -15 0 -8 -3 -15 -6 -15 -29 0 -114 81 -114 109 0 14 6 17 28 13 15
-3 21 -7 15 -9z m-655 -20 c-4 -22 -22 -20 -26 1 -2 10 3 16 13 16 10 0 15 -7
13 -17z m541 -40 c-10 -27 -76 -93 -93 -93 -7 0 -27 -15 -83 -60 -18 -15 -50
-12 -50 4 0 8 8 11 19 8 12 -3 31 6 51 25 18 16 49 40 70 52 20 13 37 29 37
37 0 8 5 14 10 14 6 0 10 7 10 16 0 8 4 13 9 9 5 -3 12 -1 16 5 12 19 14 10 4
-17z m-389 -3 c0 -11 -7 -20 -15 -20 -15 0 -21 21 -8 33 12 13 23 7 23 -13z
m470 -75 c7 -8 18 -15 25 -15 19 0 38 -27 25 -35 -5 -3 -10 -1 -10 4 0 6 -6
11 -13 11 -23 0 -67 25 -67 38 0 17 25 15 40 -3z m-6121 -36 c-11 -11 -24 -18
-27 -14 -4 4 2 13 12 21 30 21 39 17 15 -7z m6111 -25 c0 -8 4 -14 10 -14 5 0
7 -6 4 -14 -3 -8 -1 -17 5 -21 6 -3 11 -16 11 -28 0 -18 -2 -19 -10 -7 -8 12
-10 9 -10 -12 0 -46 28 -34 42 17 14 54 33 61 23 9 -11 -61 -23 -85 -42 -82
-24 4 -31 23 -32 85 -1 28 -5 55 -11 58 -5 3 -10 13 -10 21 0 8 5 12 10 9 6
-3 10 -13 10 -21z m-5870 -24 c0 -5 -7 -10 -15 -10 -8 0 -15 5 -15 10 0 6 7
10 15 10 8 0 15 -4 15 -10z m6118 -138 c6 -18 -15 -14 -22 4 -4 10 -1 14 6 12
6 -2 14 -10 16 -16z m-220 -29 c0 -16 3 -39 7 -52 6 -17 5 -22 -3 -17 -7 4
-12 2 -12 -5 0 -10 -3 -10 -11 -2 -8 8 -8 17 -1 29 6 11 7 27 2 40 -8 21 -6
24 17 33 1 1 2 -11 1 -26z m32 -28 c0 -8 -4 -15 -10 -15 -5 0 -10 7 -10 15 0
8 5 15 10 15 6 0 10 -7 10 -15z"/>
<path d="M7899 2818 c-5 -17 -2 -128 4 -128 4 0 7 29 7 65 0 36 -2 65 -5 65
-3 0 -5 -1 -6 -2z"/>
<path d="M7872 2645 c6 -14 13 -23 16 -21 7 7 -9 46 -18 46 -5 0 -4 -11 2 -25z"/>
<path d="M7870 2592 c0 -12 19 -26 26 -19 2 2 -2 10 -11 17 -9 8 -15 8 -15 2z"/>
<path d="M7717 2733 c-4 -3 -7 -11 -7 -17 0 -6 5 -5 12 2 6 6 9 14 7 17 -3 3
-9 2 -12 -2z"/>
<path d="M7674 2669 c-3 -6 -1 -16 5 -22 8 -8 11 -5 11 11 0 24 -5 28 -16 11z"/>
<path d="M7656 2624 c-4 -9 -4 -19 -1 -22 2 -3 7 3 11 12 4 9 4 19 1 22 -2 3
-7 -3 -11 -12z"/>
<path d="M9155 1981 c-3 -5 -1 -12 5 -16 5 -3 10 1 10 9 0 18 -6 21 -15 7z"/>
<path d="M7155 1890 c-8 -13 4 -32 16 -25 12 8 12 35 0 35 -6 0 -13 -4 -16
-10z"/>
<path d="M9086 3408 c-10 -147 -7 -246 8 -276 7 -15 17 -65 21 -112 4 -47 13
-134 21 -195 25 -188 37 -323 31 -339 -4 -9 -19 -18 -34 -22 -15 -4 -36 -13
-45 -22 -10 -8 -35 -16 -55 -18 -65 -5 -103 -14 -103 -26 0 -6 15 -8 43 -4 42
6 78 -6 63 -21 -4 -4 -20 -8 -34 -8 -24 0 -27 -4 -27 -33 0 -19 6 -38 13 -44
6 -6 12 -7 12 -3 0 5 9 0 20 -10 19 -18 20 -17 20 3 0 11 -6 22 -12 24 -8 3
-2 15 17 32 24 22 26 29 15 36 -8 5 -12 11 -9 14 7 7 106 9 180 3 l66 -5 17
76 c17 76 39 308 52 545 6 123 7 129 30 137 22 9 24 15 24 87 0 43 -3 122 -7
176 l-6 97 -157 0 -157 0 -7 -92z m232 -250 c-7 -20 -58 -23 -58 -4 0 11 10
16 31 16 20 0 29 -4 27 -12z"/>
<path d="M5477 2800 c-77 -15 -113 -63 -86 -119 36 -78 45 -91 59 -91 9 0 31
-13 49 -28 31 -26 34 -32 38 -102 6 -92 25 -157 40 -138 11 14 4 83 -17 153
-24 80 -24 102 -1 114 12 7 21 21 21 32 0 11 4 28 10 38 7 14 4 30 -10 59 -11
23 -20 47 -20 55 0 16 -20 37 -34 36 -6 -1 -28 -5 -49 -9z"/>
<path d="M8075 2430 c-3 -5 1 -10 10 -10 9 0 13 5 10 10 -3 6 -8 10 -10 10 -2
0 -7 -4 -10 -10z"/>
<path d="M8135 2400 c3 -5 8 -10 11 -10 2 0 4 5 4 10 0 6 -5 10 -11 10 -5 0
-7 -4 -4 -10z"/>
<path d="M8820 2370 c0 -11 7 -20 15 -20 8 0 23 -10 34 -22 18 -18 24 -20 45
-10 14 6 30 20 36 32 10 19 9 20 -14 14 -19 -4 -28 -2 -32 10 -4 11 -19 16
-45 16 -32 0 -39 -3 -39 -20z"/>
<path d="M8058 2369 c-24 -14 -23 -39 2 -39 11 0 20 -7 20 -15 0 -21 13 -19
27 5 10 15 10 21 -1 27 -8 4 -15 12 -15 18 1 14 -14 16 -33 4z"/>
<path d="M8354 2346 c-5 -22 -11 -25 -57 -25 -117 1 -120 1 -114 -21 4 -16 -2
-24 -28 -34 -27 -12 -32 -18 -28 -38 4 -23 2 -25 -38 -24 -25 1 -44 -4 -46
-12 -3 -7 1 -10 10 -6 10 3 18 -2 22 -15 8 -27 21 -27 35 -1 7 13 18 19 28 16
9 -3 23 -1 31 3 12 8 12 12 2 24 -10 13 -8 16 11 19 16 2 22 9 20 23 -3 27 32
48 69 40 36 -8 37 -22 4 -35 -24 -9 -35 -30 -15 -30 13 0 60 -52 60 -67 0 -7
6 -13 14 -13 20 0 66 39 66 57 0 12 -3 13 -14 4 -17 -14 -46 -4 -40 14 3 7 -2
25 -11 39 -15 23 -16 26 -2 32 25 9 38 -5 31 -32 -6 -25 -5 -25 32 -18 22 3
41 8 43 10 9 8 -13 24 -33 24 -13 0 -29 6 -35 14 -13 15 -13 15 39 56 l25 19
-37 1 c-32 0 -39 -4 -44 -24z"/>
<path d="M9128 2362 c-18 -8 -58 -55 -58 -70 0 -5 7 -16 16 -23 14 -11 18 -10
30 6 8 11 12 25 10 32 -3 7 4 17 14 23 11 6 20 17 20 25 0 16 -6 17 -32 7z"/>
<path d="M8151 2351 c-18 -12 -6 -42 14 -35 8 3 15 15 15 25 0 21 -8 23 -29
10z"/>
<path d="M7783 2308 c0 -7 -4 -21 -8 -30 -4 -10 -3 -18 3 -18 17 0 33 27 26
44 -7 19 -20 21 -21 4z"/>
<path d="M6590 2255 c0 -45 3 -53 15 -49 11 5 13 10 5 19 -7 9 -7 21 0 39 14
37 13 46 -5 46 -12 0 -15 -13 -15 -55z"/>
<path d="M8920 2280 c12 -22 25 -26 36 -9 7 12 -12 29 -34 29 -10 0 -10 -5 -2
-20z"/>
<path d="M7617 2284 c-14 -14 -6 -24 19 -24 16 0 24 5 22 13 -5 14 -31 21 -41
11z"/>
<path d="M9640 2266 c0 -13 7 -30 16 -37 15 -13 17 -11 12 18 -2 18 0 34 6 37
6 2 1 5 -11 5 -18 1 -23 -5 -23 -23z"/>
<path d="M8040 2270 c0 -5 5 -10 10 -10 6 0 10 5 10 10 0 6 -4 10 -10 10 -5 0
-10 -4 -10 -10z"/>
<path d="M8087 2273 c-4 -3 -7 -15 -7 -25 0 -16 3 -16 20 -6 11 7 20 18 20 25
0 14 -22 18 -33 6z"/>
<path d="M7670 2246 c-6 -9 -9 -19 -6 -24 3 -5 -4 -16 -16 -26 -11 -10 -16
-21 -12 -26 15 -14 62 1 76 24 12 18 11 24 -8 44 -18 19 -23 20 -34 8z"/>
<path d="M7140 2235 c0 -8 -13 -21 -30 -30 -36 -19 -39 -35 -5 -35 14 0 39 13
57 31 19 18 26 28 16 25 -12 -3 -18 0 -18 9 0 8 -4 15 -10 15 -5 0 -10 -7 -10
-15z"/>
<path d="M7577 2230 c-9 -11 -27 -20 -39 -20 l-23 0 25 -20 c22 -17 26 -17 36
-5 7 9 18 13 29 9 22 -9 37 14 24 38 -13 23 -30 23 -52 -2z"/>
<path d="M8980 2225 c0 -8 5 -15 10 -15 6 0 10 7 10 15 0 8 -4 15 -10 15 -5 0
-10 -7 -10 -15z"/>
<path d="M9978 2223 c6 -2 18 -2 25 0 6 3 1 5 -13 5 -14 0 -19 -2 -12 -5z"/>
<path d="M7302 2201 c2 -7 7 -12 11 -12 12 1 9 15 -3 20 -7 2 -11 -2 -8 -8z"/>
<path d="M9980 2201 c0 -6 5 -13 11 -17 6 -3 9 -14 6 -24 -4 -15 1 -18 32 -17
21 1 45 9 53 18 14 14 14 17 -3 27 -16 11 -19 9 -19 -9 0 -26 -21 -20 -35 9
-10 21 -45 31 -45 13z"/>
<path d="M6590 2160 c0 -19 3 -21 12 -12 9 9 9 15 0 24 -9 9 -12 7 -12 -12z"/>
<path d="M7740 2160 c0 -11 4 -20 9 -20 5 0 11 9 14 20 3 13 0 20 -9 20 -8 0
-14 -9 -14 -20z"/>
<path d="M7420 2149 c0 -5 5 -7 10 -4 6 3 10 8 10 11 0 2 -4 4 -10 4 -5 0 -10
-5 -10 -11z"/>
<path d="M7557 2152 c-5 -7 -12 -10 -17 -7 -5 3 -11 1 -15 -5 -3 -5 -17 -10
-31 -10 -25 0 -32 -14 -13 -26 6 -3 16 -1 21 4 8 8 17 8 30 1 28 -15 13 -28
-31 -26 -47 2 -86 -29 -58 -45 10 -5 15 -13 12 -19 -4 -5 -2 -9 3 -9 6 0 13 7
16 16 4 10 15 14 32 12 38 -4 66 36 62 88 -2 25 -6 34 -11 26z"/>
<path d="M9920 2120 c0 -11 5 -20 10 -20 6 0 10 9 10 20 0 11 -4 20 -10 20 -5
0 -10 -9 -10 -20z"/>
<path d="M6590 2106 c0 -28 14 -35 23 -12 3 8 -1 20 -9 26 -12 10 -14 8 -14
-14z"/>
<path d="M6860 2040 c0 -5 5 -10 11 -10 5 0 7 5 4 10 -3 6 -8 10 -11 10 -2 0
-4 -4 -4 -10z"/>
<path d="M6848 1969 c-10 -5 -30 -9 -45 -7 -20 2 -28 -2 -31 -16 -3 -14 0 -17
11 -13 9 3 21 -1 28 -9 10 -13 14 -12 31 3 23 21 42 53 31 53 -4 0 -16 -5 -25
-11z"/>
<path d="M6290 1948 c0 -20 1 -20 19 -4 14 13 28 16 48 12 16 -4 40 -2 54 3
19 8 9 10 -48 10 -68 1 -73 0 -73 -21z"/>
<path d="M6468 1963 c6 -2 18 -2 25 0 6 3 1 5 -13 5 -14 0 -19 -2 -12 -5z"/>
<path d="M6290 1871 c0 -36 5 -39 19 -12 8 14 7 22 -4 31 -13 11 -15 8 -15
-19z"/>
<path d="M6360 1860 c0 -5 5 -10 11 -10 5 0 7 5 4 10 -3 6 -8 10 -11 10 -2 0
-4 -4 -4 -10z"/>
<path d="M10567 1819 c-14 -30 -13 -69 3 -69 10 0 31 50 25 61 -4 5 -2 9 3 9
9 0 20 -23 35 -72 5 -14 10 -15 31 -5 17 8 21 13 11 15 -18 4 -19 16 -4 44 15
27 -10 48 -57 48 -25 0 -34 -6 -47 -31z"/>
<path d="M10700 1814 c0 -3 7 -12 15 -21 20 -19 32 -9 15 12 -12 15 -30 20
-30 9z"/>
<path d="M6297 1794 c-4 -4 -7 -14 -7 -23 0 -11 3 -12 11 -4 6 6 10 16 7 23
-2 6 -7 8 -11 4z"/>
<path d="M10560 1724 c0 -8 5 -12 10 -9 6 3 10 10 10 16 0 5 -4 9 -10 9 -5 0
-10 -7 -10 -16z"/>
<path d="M10540 1670 c0 -5 5 -10 10 -10 6 0 10 5 10 10 0 6 -4 10 -10 10 -5
0 -10 -4 -10 -10z"/>
<path d="M10604 1635 c-4 -10 -1 -21 7 -26 23 -14 31 -10 27 13 -4 27 -26 35
-34 13z"/>
<path d="M6000 1628 c0 -4 14 -8 30 -8 17 0 30 4 30 8 0 5 -13 9 -30 9 -16 0
-30 -4 -30 -9z"/>
<path d="M6133 1633 c-18 -6 -16 -23 1 -23 17 0 30 16 19 23 -5 2 -14 2 -20 0z"/>
<path d="M5973 1560 c0 -41 2 -58 4 -37 2 20 2 54 0 75 -2 20 -4 3 -4 -38z"/>
<path d="M10590 1560 c0 -5 5 -10 10 -10 6 0 10 5 10 10 0 6 -4 10 -10 10 -5
0 -10 -4 -10 -10z"/>
<path d="M5973 1440 c0 -25 2 -35 4 -22 2 12 2 32 0 45 -2 12 -4 2 -4 -23z"/>
<path d="M3845 1090 c-25 -28 -32 -118 -11 -145 l16 -20 13 20 c6 11 15 31 18
45 3 14 11 24 18 22 24 -5 41 20 41 59 0 39 0 39 -38 39 -26 0 -45 -7 -57 -20z"/>
<path d="M5350 961 c0 -5 7 -11 15 -15 9 -3 15 0 15 9 0 8 -7 15 -15 15 -8 0
-15 -4 -15 -9z"/>
<path d="M5352 840 c-1 -94 0 -103 13 -86 9 12 11 23 5 31 -5 6 -11 44 -13 85
-3 64 -3 59 -5 -30z"/>
<path d="M11250 818 c0 -18 18 -34 28 -24 3 4 -2 14 -11 23 -16 16 -17 16 -17
1z"/>
<path d="M5040 630 c0 -6 46 -10 112 -10 61 0 109 3 106 6 -11 10 -218 14
-218 4z"/>
<path d="M3232 424 c-17 -12 -22 -25 -22 -58 0 -55 10 -106 21 -106 10 0 22
37 23 70 1 19 6 25 25 25 23 0 34 11 45 48 4 13 12 17 26 12 14 -5 20 -2 20 9
0 22 -107 22 -138 0z"/>
<path d="M4730 190 c0 -62 3 -110 7 -107 8 9 8 206 -1 214 -3 4 -6 -45 -6
-107z"/>
<path d="M3188 223 c-35 -41 -88 -164 -88 -204 0 -18 11 -19 149 -19 l150 0
-16 48 c-24 73 -37 83 -43 36 l-6 -39 -23 45 c-33 62 -91 150 -100 150 -5 0
-15 -8 -23 -17z"/>
<path d="M3331 154 c0 -11 3 -14 6 -6 3 7 2 16 -1 19 -3 4 -6 -2 -5 -13z"/>
<path d="M11641 14 c0 -11 3 -14 6 -6 3 7 2 16 -1 19 -3 4 -6 -2 -5 -13z"/>
</g>
</svg>
