<?xml version="1.0" standalone="no"?>
<!DOCTYPE svg PUBLIC "-//W3C//DTD SVG 20010904//EN"
 "http://www.w3.org/TR/2001/REC-SVG-20010904/DTD/svg10.dtd">
<svg version="1.0" xmlns="http://www.w3.org/2000/svg"
 width="850.000000pt" height="554.000000pt" viewBox="0 0 850.000000 554.000000"
 preserveAspectRatio="xMidYMid meet">

<g transform="translate(0.000000,554.000000) scale(0.100000,-0.100000)"
fill="#000000" stroke="none">
<path d="M135 5511 c17 -15 32 -24 33 -20 2 5 13 9 25 9 18 0 19 2 7 10 -8 5
-22 7 -31 5 -9 -3 -22 1 -29 10 -7 8 -18 15 -24 15 -6 0 3 -13 19 -29z"/>
<path d="M540 5524 c0 -14 3 -14 15 -4 8 7 15 14 15 16 0 2 -7 4 -15 4 -8 0
-15 -7 -15 -16z"/>
<path d="M3437 5529 c7 -7 15 -10 18 -7 3 3 -2 9 -12 12 -14 6 -15 5 -6 -5z"/>
<path d="M8290 5525 c-16 -19 0 -19 26 0 16 12 16 14 3 15 -9 0 -22 -7 -29
-15z"/>
<path d="M576 5511 c-4 -5 1 -8 9 -7 21 3 31 16 12 16 -9 0 -18 -4 -21 -9z"/>
<path d="M1540 5511 c0 -6 4 -13 10 -16 6 -3 7 1 4 9 -7 18 -14 21 -14 7z"/>
<path d="M0 5493 c0 -7 4 -13 9 -13 5 0 11 6 14 13 3 8 -1 14 -9 14 -8 0 -14
-6 -14 -14z"/>
<path d="M50 5495 c0 -8 2 -15 4 -15 2 0 6 7 10 15 3 8 1 15 -4 15 -6 0 -10
-7 -10 -15z"/>
<path d="M7985 5500 c-3 -5 -1 -10 4 -10 6 0 11 5 11 10 0 6 -2 10 -4 10 -3 0
-8 -4 -11 -10z"/>
<path d="M8380 5500 c-13 -8 -12 -10 3 -10 9 0 17 5 17 10 0 12 -1 12 -20 0z"/>
<path d="M340 5490 c0 -13 11 -13 30 0 12 8 11 10 -7 10 -13 0 -23 -4 -23 -10z"/>
<path d="M550 5480 c0 -5 5 -10 11 -10 5 0 7 5 4 10 -3 6 -8 10 -11 10 -2 0
-4 -4 -4 -10z"/>
<path d="M8345 5480 c-4 -6 -11 -7 -17 -4 -8 5 -9 1 -5 -10 6 -14 3 -17 -9
-12 -14 5 -15 4 -5 -8 11 -13 16 -12 36 6 14 12 22 25 19 30 -7 11 -11 10 -19
-2z"/>
<path d="M1017 5473 c-6 -10 19 -34 26 -26 8 7 -3 33 -13 33 -5 0 -11 -3 -13
-7z"/>
<path d="M520 5460 c0 -5 5 -10 11 -10 5 0 7 5 4 10 -3 6 -8 10 -11 10 -2 0
-4 -4 -4 -10z"/>
<path d="M370 5450 c0 -5 6 -10 14 -10 8 0 18 5 21 10 3 6 -3 10 -14 10 -12 0
-21 -4 -21 -10z"/>
<path d="M1260 5411 c0 -6 5 -13 10 -16 6 -3 10 1 10 9 0 9 -4 16 -10 16 -5 0
-10 -4 -10 -9z"/>
<path d="M70 5406 c0 -2 7 -7 16 -10 8 -3 12 -2 9 4 -6 10 -25 14 -25 6z"/>
<path d="M16 5383 c-6 -14 -5 -15 5 -6 7 7 10 15 7 18 -3 3 -9 -2 -12 -12z"/>
<path d="M220 5390 c0 -5 5 -10 10 -10 6 0 10 5 10 10 0 6 -4 10 -10 10 -5 0
-10 -4 -10 -10z"/>
<path d="M7600 5385 c0 -8 5 -15 10 -15 6 0 10 7 10 15 0 8 -4 15 -10 15 -5 0
-10 -7 -10 -15z"/>
<path d="M1120 5379 c0 -5 5 -7 10 -4 6 3 10 8 10 11 0 2 -4 4 -10 4 -5 0 -10
-5 -10 -11z"/>
<path d="M1925 5370 c3 -5 11 -10 16 -10 6 0 7 5 4 10 -3 6 -11 10 -16 10 -6
0 -7 -4 -4 -10z"/>
<path d="M86 5353 c-6 -14 -5 -15 5 -6 7 7 10 15 7 18 -3 3 -9 -2 -12 -12z"/>
<path d="M374 5363 c10 -11 36 -12 36 -2 0 5 -10 9 -22 9 -12 0 -18 -3 -14 -7z"/>
<path d="M1117 5349 c7 -7 15 -10 18 -7 3 3 -2 9 -12 12 -14 6 -15 5 -6 -5z"/>
<path d="M50 5340 c0 -5 5 -10 11 -10 5 0 7 5 4 10 -3 6 -8 10 -11 10 -2 0 -4
-4 -4 -10z"/>
<path d="M6960 5290 c0 -5 5 -10 11 -10 5 0 7 5 4 10 -3 6 -8 10 -11 10 -2 0
-4 -4 -4 -10z"/>
<path d="M82 5278 c-19 -19 -14 -30 8 -18 11 6 20 15 20 20 0 14 -14 12 -28
-2z"/>
<path d="M1280 5276 c0 -2 7 -6 15 -10 8 -3 15 -1 15 4 0 6 -7 10 -15 10 -8 0
-15 -2 -15 -4z"/>
<path d="M225 5260 c3 -5 8 -10 11 -10 2 0 4 5 4 10 0 6 -5 10 -11 10 -5 0 -7
-4 -4 -10z"/>
<path d="M8455 5191 c-3 -5 -1 -12 5 -16 5 -3 10 1 10 9 0 18 -6 21 -15 7z"/>
<path d="M260 5180 c0 -5 5 -10 11 -10 5 0 7 5 4 10 -3 6 -8 10 -11 10 -2 0
-4 -4 -4 -10z"/>
<path d="M530 5131 c0 -18 18 -21 30 -6 10 13 9 15 -9 15 -11 0 -21 -4 -21 -9z"/>
<path d="M415 5120 c-3 -5 -1 -10 4 -10 6 0 11 5 11 10 0 6 -2 10 -4 10 -3 0
-8 -4 -11 -10z"/>
<path d="M110 5019 c0 -18 2 -19 15 -9 8 7 15 16 15 21 0 5 -7 9 -15 9 -9 0
-15 -9 -15 -21z"/>
<path d="M5143 4940 c-13 -5 -23 -18 -23 -29 0 -39 22 -121 32 -121 6 0 7 7 2
18 -4 9 -9 34 -12 55 -4 34 -2 37 21 37 14 0 28 -7 31 -16 8 -22 26 -7 26 22
0 17 -8 27 -26 34 -14 6 -26 10 -27 9 -1 0 -12 -4 -24 -9z"/>
<path d="M230 4929 c0 -5 5 -7 10 -4 6 3 10 8 10 11 0 2 -4 4 -10 4 -5 0 -10
-5 -10 -11z"/>
<path d="M4705 4910 c-8 -26 4 -100 16 -100 4 0 13 15 18 33 9 30 9 30 10 6 1
-29 23 -53 42 -47 14 5 21 38 8 38 -5 0 -9 -5 -9 -12 0 -8 -6 -6 -16 4 -21 21
-11 68 16 75 37 10 20 23 -29 23 -41 0 -51 -3 -56 -20z"/>
<path d="M5562 4891 c-7 -4 -17 -24 -22 -44 -6 -28 -3 -43 12 -67 19 -32 19
-32 -3 -93 -13 -38 -23 -95 -25 -147 -8 -164 -9 -290 -3 -290 3 0 13 -71 23
-157 9 -87 20 -178 23 -203 5 -44 4 -45 -29 -59 -18 -7 -53 -15 -77 -18 -25
-2 -47 -6 -50 -8 -5 -5 84 -9 134 -5 26 2 27 0 16 -14 -7 -9 -19 -16 -26 -16
-17 0 -27 -42 -12 -52 7 -4 17 5 26 28 9 23 18 33 28 30 8 -3 11 -2 8 3 -7 12
27 23 47 16 12 -5 18 9 27 67 11 67 30 294 31 361 0 18 5 27 16 27 14 0 15 21
9 208 -6 192 -8 211 -32 260 -13 28 -28 52 -32 52 -13 0 -37 -32 -61 -78 -12
-24 -23 -42 -25 -40 -2 1 2 25 8 52 9 39 18 53 44 69 29 17 33 24 33 61 0 23
-5 47 -12 54 -14 14 -57 16 -76 3z m90 -633 c-9 -9 -15 -9 -24 0 -9 9 -7 12
12 12 19 0 21 -3 12 -12z"/>
<path d="M4682 4788 c-42 -53 -46 -80 -52 -291 -4 -179 -3 -210 10 -218 9 -5
-87 -9 -235 -9 l-250 -1 -403 -433 c-349 -377 -407 -435 -437 -440 -20 -4 -39
-4 -44 -1 -5 3 -10 87 -10 188 -1 173 6 234 34 301 17 40 -20 10 -42 -35 -21
-40 -23 -64 -30 -253 -4 -146 -3 -207 4 -203 7 4 12 -7 15 -28 4 -35 4 -35
-34 -35 l-38 0 0 -61 0 -61 -257 -275 c-310 -332 -333 -358 -333 -372 0 -6 -4
-11 -9 -11 -5 0 -30 -22 -57 -50 -27 -27 -52 -50 -56 -50 -5 0 -8 16 -8 36 0
30 3 34 19 29 14 -4 23 0 30 14 15 27 15 29 -18 45 -27 14 -28 19 -33 98 -3
46 -14 103 -23 128 -19 48 -42 80 -32 45 4 -11 9 -33 12 -50 6 -27 4 -26 -19
13 -14 24 -34 54 -45 68 l-20 25 -25 -44 c-33 -55 -34 -64 -41 -294 -4 -159
-3 -193 9 -193 9 0 15 -18 19 -52 7 -58 12 -50 -130 -201 l-73 -79 0 34 c-2
122 -19 288 -32 318 -9 19 -19 42 -22 50 -3 8 -3 -5 0 -30 l6 -45 -38 63 c-21
34 -41 62 -45 62 -5 0 -21 -21 -36 -47 -28 -48 -28 -49 -31 -257 -3 -158 0
-211 9 -217 7 -4 14 -31 16 -61 l4 -53 -187 -200 c-103 -110 -242 -258 -309
-330 -109 -117 -235 -252 -705 -757 -80 -86 -146 -155 -147 -154 -1 1 -6 67
-11 146 -6 96 -15 157 -26 180 l-16 35 3 -33 c2 -17 2 -32 0 -32 -1 0 -14 21
-28 48 -13 26 -32 56 -40 67 -16 20 -16 20 -35 -5 -40 -51 -50 -113 -50 -311
0 -157 2 -188 15 -193 8 -3 15 -17 15 -31 0 -21 -5 -25 -28 -25 -27 0 -28 -2
-26 -47 2 -46 0 -49 -72 -123 -41 -42 -74 -79 -74 -83 0 -4 24 -7 53 -7 50 0
55 3 102 50 54 54 65 52 65 -12 l0 -38 49 0 48 0 7 46 c9 68 8 76 -12 72 -9
-1 -23 1 -30 6 -7 4 -19 3 -27 -4 -7 -6 -15 -7 -18 -3 -3 4 24 40 60 78 36 39
63 65 60 60 -3 -6 -2 -17 3 -25 7 -11 9 -6 7 16 -2 27 50 86 528 600 889 955
832 896 839 861 3 -16 6 -45 6 -63 0 -19 5 -53 12 -77 l11 -44 64 -1 c66 -2
85 12 33 25 -17 4 -31 10 -32 13 -1 3 7 77 17 165 l19 160 121 129 120 130 7
-40 c4 -21 7 -55 7 -74 2 -77 29 -128 52 -96 4 4 14 4 24 -1 18 -10 65 -6 65
6 0 4 -13 11 -28 17 -24 9 -28 16 -26 40 2 16 11 87 19 158 8 71 20 136 27
145 15 18 651 702 753 809 l70 74 0 -79 c0 -43 2 -98 4 -123 4 -33 1 -44 -8
-42 -7 1 -10 -2 -6 -8 4 -7 13 -5 27 4 14 10 35 13 69 9 56 -7 67 9 18 26
l-32 11 7 61 c3 34 6 79 6 100 0 35 3 39 25 39 24 0 25 2 25 75 l0 75 401 430
402 430 193 0 193 0 3 -57 c3 -51 6 -58 25 -61 l22 -3 -25 -67 c-15 -37 -31
-86 -37 -109 l-12 -43 -149 0 -149 0 -53 -56 c-34 -37 -56 -54 -65 -49 -7 5
-10 4 -6 -2 6 -10 -30 -52 -226 -263 -38 -41 -93 -100 -121 -130 -71 -77 -307
-329 -391 -418 -38 -41 -74 -81 -78 -89 -7 -12 -11 -12 -25 -1 -15 11 -15 11
-5 -2 9 -12 -9 -36 -103 -135 -63 -66 -119 -119 -125 -117 -6 1 -8 -1 -5 -6 3
-5 -13 -29 -35 -53 -23 -24 -74 -80 -115 -124 -71 -78 -74 -81 -116 -79 l-43
2 37 -6 38 -7 -73 -79 c-151 -167 -250 -265 -260 -259 -6 3 -7 1 -3 -6 9 -14
-174 -212 -188 -204 -5 3 -6 2 -3 -4 3 -5 -15 -32 -41 -59 -26 -27 -96 -102
-156 -166 -59 -65 -112 -115 -117 -112 -5 3 -8 1 -7 -4 5 -16 -113 -143 -125
-135 -5 3 -7 1 -4 -4 8 -13 -17 -36 -28 -25 -5 4 -5 2 -2 -4 7 -12 -6 -30 -80
-106 -25 -27 -50 -45 -56 -41 -6 3 -7 1 -3 -5 4 -7 -16 -35 -49 -69 -31 -32
-77 -81 -102 -110 -26 -31 -50 -50 -56 -46 -7 3 -9 3 -5 -2 11 -12 -236 -282
-254 -277 -5 1 -7 -2 -4 -7 6 -10 -11 -26 -28 -26 -5 0 -10 -8 -12 -18 -1 -9
-15 -30 -31 -45 -15 -15 -81 -84 -147 -154 -65 -70 -123 -125 -129 -121 -5 3
-7 1 -4 -4 9 -14 -32 -65 -44 -57 -5 3 -8 2 -7 -3 4 -12 -38 -63 -51 -63 -6 0
-11 -5 -11 -10 0 -6 -12 -20 -26 -33 -14 -12 -30 -30 -35 -39 -9 -17 157 -18
3257 -18 l3266 0 -6 27 c-4 16 -9 60 -12 98 -3 39 -12 86 -19 105 -13 32 -35
128 -35 150 0 6 7 10 15 10 32 0 10 36 -27 45 -18 5 -36 22 -54 53 -15 26 -34
57 -42 70 -15 22 -14 23 11 16 22 -5 27 -3 27 12 0 23 -10 38 -31 50 -14 8
-11 25 23 149 35 127 38 144 28 185 -6 25 -20 54 -31 66 -10 11 -19 29 -19 40
0 11 -5 25 -11 31 -7 7 -7 52 -1 144 5 74 5 138 0 144 -4 5 -8 24 -8 42 0 19
-8 48 -17 66 -14 26 -16 53 -14 137 2 58 4 116 6 130 2 14 4 47 4 73 1 29 5
46 11 42 5 -3 20 0 32 7 13 7 29 11 36 10 6 -2 12 4 12 13 0 12 -6 15 -20 10
-24 -7 -28 13 -4 22 20 7 11 96 -17 170 -19 48 -20 53 -4 82 16 31 13 57 -6
46 -17 -11 -37 9 -28 30 6 16 8 17 8 3 1 -9 5 -19 10 -22 5 -4 7 3 4 14 -4 14
0 20 11 20 9 0 16 -5 16 -11 0 -5 -4 -7 -10 -4 -16 10 -12 -11 5 -25 12 -10
16 -9 21 4 3 9 3 27 0 40 -3 14 -2 28 4 31 14 9 13 -68 -2 -83 -9 -9 -8 -12 5
-12 19 0 23 -16 32 -115 10 -116 55 -422 81 -560 48 -249 107 -440 214 -688
24 -54 41 -99 39 -101 -2 -2 -15 -6 -28 -8 -20 -2 -26 3 -36 32 -17 50 -86 80
-113 48 -20 -25 -12 -89 14 -113 13 -12 24 -28 24 -35 0 -9 6 -8 20 5 25 23
60 14 86 -22 19 -28 70 -210 60 -220 -11 -12 -47 11 -73 47 l-29 38 -24 -35
c-23 -34 -124 -93 -157 -93 -7 0 -13 -4 -13 -10 0 -9 115 35 134 52 19 15 24
8 31 -42 7 -48 5 -53 -34 -105 -22 -29 -48 -70 -58 -89 -16 -35 -16 -37 15
-113 18 -43 32 -84 32 -90 0 -9 18 -13 55 -13 l55 0 -6 40 c-5 31 -3 40 8 40
8 0 33 42 60 103 64 143 63 137 25 137 -40 1 -107 16 -117 27 -5 4 -12 42 -15
83 l-7 75 33 -32 c19 -17 47 -35 64 -39 16 -4 38 -18 48 -31 25 -31 58 -29 97
7 27 26 31 35 26 63 -3 17 -9 49 -12 69 -4 21 -10 36 -13 33 -4 -2 -5 12 -3
30 3 24 -2 40 -17 56 -24 26 -26 35 -8 42 21 9 -49 67 -82 67 -32 0 -29 -7
-111 200 -116 291 -175 529 -224 910 -36 279 -41 340 -27 340 9 0 11 33 10
116 -1 63 0 117 2 118 2 2 19 11 37 20 39 20 52 50 40 91 -5 16 -13 61 -17 98
-5 37 -15 75 -22 83 -7 9 -13 28 -14 42 0 18 -10 33 -35 50 -35 23 -45 24
-114 6 -21 -5 -27 -2 -36 20 -5 15 -18 30 -27 33 -10 4 -24 13 -31 20 -17 16
-53 17 -87 1 -34 -15 -27 -31 19 -41 21 -5 40 -16 43 -23 7 -20 31 -17 35 4 3
13 8 10 21 -15 16 -30 16 -33 -1 -45 -10 -7 -26 -24 -36 -38 l-18 -25 5 27 c3
18 -1 32 -12 40 -13 10 -14 10 -4 -1 18 -21 -3 -61 -32 -61 -5 1 -2 7 7 14 15
11 12 13 -29 15 -26 1 -60 10 -78 21 -19 12 -41 18 -51 14 -14 -4 -15 -3 -6 3
10 8 10 12 -2 22 -12 10 -16 9 -25 -6 -9 -17 -11 -16 -28 7 -10 14 -18 28 -18
32 0 4 -8 17 -19 29 -15 18 -16 21 -2 16 9 -4 17 -1 17 6 1 7 3 28 4 47 2 19
5 51 8 72 7 50 -19 135 -44 143 -10 4 -23 3 -29 0 -5 -3 -10 -1 -10 4 0 6 -7
11 -15 11 -9 0 -14 -8 -12 -22 1 -17 -4 -23 -21 -24 -17 -1 -20 2 -11 12 6 7
8 17 5 22 -3 4 11 14 30 21 18 7 34 17 34 22 0 13 -18 11 -23 -3 -3 -10 -7
-10 -20 0 -9 8 -20 12 -24 9 -4 -2 -17 -1 -28 4 -16 6 -17 8 -3 8 9 1 22 9 27
19 9 15 10 15 11 1 0 -20 50 -21 50 -1 0 7 -5 10 -12 6 -7 -4 -8 -3 -4 5 4 6
11 9 15 6 5 -2 13 6 19 20 9 19 8 26 -5 36 -8 7 -19 22 -23 34 -8 18 -9 18 -9
1 -1 -11 -6 -16 -15 -13 -11 4 -12 -2 -6 -29 8 -36 5 -40 -20 -24 -11 7 -11
10 -2 10 10 0 10 3 0 14 -11 12 -14 11 -18 -8 -6 -22 -42 -31 -70 -16 -12 7
-10 11 10 18 l25 9 -32 7 c-31 7 -56 26 -34 26 6 0 11 6 11 14 0 13 -4 13 -27
1 -30 -16 -41 -12 -26 7 7 9 4 18 -8 30 -10 10 -19 12 -21 6 -2 -6 -12 -9 -23
-7 -17 4 -17 6 -3 19 8 8 13 20 11 26 -2 7 7 12 22 12 21 0 24 -4 19 -20 -6
-19 -5 -19 15 -2 13 12 17 21 10 25 -14 8 -14 20 2 29 8 6 2 18 -22 42 -40 41
-69 54 -81 36 -6 -10 -8 -10 -8 -1 0 7 -10 17 -21 24 -15 8 -19 8 -15 0 4 -6
2 -11 -3 -11 -6 0 -11 8 -11 19 0 10 -7 24 -15 31 -12 10 -15 9 -15 -4 0 -12
-7 -16 -27 -13 -30 5 -63 -8 -63 -23 0 -6 7 -10 15 -10 8 0 15 7 15 16 0 8 4
13 10 9 5 -3 7 -12 3 -20 -3 -8 0 -15 6 -15 6 0 10 -3 10 -7 -1 -5 -1 -18 0
-30 1 -17 6 -20 24 -15 20 5 21 4 8 -11 -15 -18 -51 -23 -51 -7 0 6 -7 10 -15
10 -8 0 -15 -5 -15 -11 0 -6 -7 -8 -16 -5 -8 3 -12 2 -9 -4 3 -6 1 -10 -5 -10
-8 0 -9 10 -5 30 4 17 3 29 -2 28 -4 -2 -9 2 -10 7 -4 16 8 46 16 41 4 -3 7 4
7 15 0 19 -1 19 -13 3 -7 -10 -13 -14 -13 -10 0 5 -6 3 -14 -3 -13 -11 -14 -6
-11 31 2 24 1 37 -2 30 -4 -10 -9 -9 -20 5 -13 17 -14 17 -8 -4 5 -19 2 -23
-14 -23 -12 0 -21 -4 -21 -9 0 -5 -11 -11 -25 -13 -14 -3 -25 -1 -25 3 0 5 -5
9 -10 9 -7 0 -7 -6 0 -19 14 -27 13 -44 -2 -38 -7 2 -12 13 -11 23 1 10 0 13
-3 7 -9 -20 -27 -15 -19 5 13 31 13 61 0 66 -7 2 -16 -2 -19 -10 -3 -8 -10
-14 -16 -14 -6 0 -8 6 -4 13 5 7 1 6 -10 -2 -16 -14 -17 -16 -1 -27 9 -7 12
-15 7 -18 -6 -3 -17 6 -27 20 -12 19 -19 23 -29 14 -17 -13 -70 5 -60 21 5 8
9 8 14 -1 13 -21 32 -2 20 21 -6 11 -15 17 -21 14 -5 -4 -9 4 -9 17 1 22 2 22
28 -7 15 -17 36 -37 47 -45 19 -14 19 -14 5 4 -14 17 -13 18 5 13 24 -8 50 6
41 22 -4 6 0 11 10 11 24 0 2 23 -26 27 -19 3 -20 2 -5 -21 9 -14 12 -27 7
-30 -6 -3 -13 2 -16 11 -6 15 -8 15 -16 3 -7 -11 -10 -11 -11 -2 -1 6 -2 18
-3 25 -1 6 3 15 9 19 5 4 -1 8 -14 8 -16 0 -22 -4 -17 -15 3 -8 1 -15 -4 -15
-6 0 -10 7 -10 15 0 8 -13 21 -30 30 -16 9 -30 11 -30 6 0 -5 8 -12 18 -14 14
-4 14 -5 -3 -6 -11 0 -30 6 -42 14 -20 14 -21 13 -15 -7 3 -14 -1 -26 -13 -34
-12 -9 -14 -14 -6 -14 8 0 11 -6 7 -15 -7 -19 14 -55 32 -55 9 0 12 -6 8 -15
-3 -8 -1 -15 4 -15 5 0 12 -9 15 -20 4 -11 11 -18 16 -14 6 3 8 13 4 21 -5 14
-3 14 16 1 23 -15 45 -58 29 -58 -5 0 -12 9 -15 20 -3 11 -11 20 -16 20 -6 0
-7 -5 -4 -10 4 -6 3 -10 -2 -9 -22 4 -25 -2 -7 -15 19 -15 19 -15 -1 -11 -11
2 -20 4 -20 5 0 1 -8 3 -17 5 -21 4 -33 -11 -18 -20 6 -4 8 -11 4 -16 -3 -5
-14 1 -24 13 -19 22 -19 22 -21 3 -1 -11 -2 -26 -2 -32 1 -7 -3 -13 -8 -13 -5
0 -10 15 -10 33 -1 17 -3 24 -6 15 -5 -21 -19 -23 -29 -6 -4 6 -2 14 5 16 8 3
6 8 -6 18 -16 13 -15 13 11 4 26 -9 27 -9 16 5 -9 11 -10 15 0 15 6 0 14 -8
17 -19 3 -12 12 -17 26 -16 12 1 23 4 25 5 1 1 6 3 11 4 15 2 25 16 12 16 -7
0 -10 4 -6 9 3 5 0 13 -6 16 -5 4 -8 13 -5 20 2 7 -6 17 -20 24 -15 6 -24 7
-24 1 0 -6 -5 -10 -11 -10 -6 0 -8 9 -4 20 4 12 2 20 -5 20 -8 0 -10 -10 -8
-25 3 -14 1 -28 -3 -31 -5 -3 -9 2 -9 10 0 10 -6 13 -17 10 -15 -5 -15 -4 -3
5 8 5 12 11 10 13 -27 17 -51 27 -46 19 4 -5 1 -13 -4 -16 -8 -5 -5 -14 7 -28
10 -11 13 -17 6 -14 -15 9 -44 -3 -37 -15 3 -5 18 -7 33 -3 31 8 18 -6 -21
-23 -20 -8 -28 -8 -32 1 -2 7 -5 2 -5 -10 -1 -26 29 -35 46 -13 10 12 11 9 2
-16 -6 -18 -19 -34 -31 -37 -14 -4 -19 -11 -14 -22 3 -9 2 -13 -4 -10 -6 3
-10 12 -10 20 0 7 -6 15 -12 18 -9 3 -7 9 7 20 18 14 18 16 3 22 -19 8 -35 39
-16 33 14 -5 38 15 38 30 0 6 7 13 16 16 8 3 12 11 9 16 -5 7 -11 8 -19 1 -8
-7 -12 -4 -12 10 0 22 7 24 24 7 9 -9 12 -9 12 0 0 7 -4 12 -10 12 -5 0 -10 7
-10 16 0 14 -2 14 -16 -1 -15 -15 -18 -14 -31 5 -14 19 -40 30 -29 11 4 -5 0
-12 -6 -14 -8 -4 -7 -6 3 -6 19 -1 35 -31 16 -31 -8 0 -8 -3 2 -9 9 -6 10 -11
2 -15 -17 -11 -32 4 -26 24 5 15 2 18 -14 15 -12 -2 -21 1 -21 8 0 7 -7 4 -15
-6 -13 -18 -14 -18 -32 2 -19 23 -38 29 -28 9 4 -7 1 -6 -7 2 -7 9 -21 14 -30
12 -13 -2 -18 3 -18 18 0 12 -4 19 -9 15 -5 -3 -12 -1 -16 5 -4 6 5 10 19 10
14 0 25 -3 25 -7 -4 -22 3 -31 20 -26 12 3 26 -3 37 -16 21 -24 39 -28 31 -6
-5 11 -1 12 17 5 17 -6 23 -5 23 6 0 8 -5 14 -11 15 -6 0 0 5 14 11 15 6 20
12 12 15 -7 3 -24 -2 -37 -11 -31 -20 -55 -21 -55 -1 0 8 7 15 15 15 8 0 15
-5 15 -11 0 -5 5 -7 10 -4 8 5 7 11 -1 21 -15 18 -27 18 -45 -1 -18 -17 -34
-20 -34 -5 0 6 5 10 12 10 9 0 9 3 0 12 -10 10 -15 10 -21 -1 -5 -7 -14 -10
-20 -7 -16 10 15 40 34 32 12 -4 15 2 14 32 -1 20 4 102 10 182 7 80 10 182 6
228 l-7 82 26 0 26 0 -1 168 c0 221 -4 239 -54 274 -22 15 -43 27 -47 28 -4 0
-9 -89 -10 -197 -3 -166 -5 -198 -18 -201 -13 -2 -15 23 -14 183 1 102 -2 185
-6 185 -10 0 -20 -117 -20 -253 0 -91 -3 -118 -12 -114 -10 3 -13 53 -13 203
l0 200 -42 -24 c-24 -13 -45 -27 -48 -31 -5 -8 -35 -334 -35 -378 0 -16 7 -24
25 -29 21 -5 25 -12 25 -46 0 -33 -2 -37 -13 -26 -8 7 -17 20 -20 28 -4 8 -5
3 -3 -12 3 -24 0 -28 -20 -28 -23 0 -24 -2 -24 -85 l0 -85 44 0 44 0 6 -77 c4
-43 8 -93 11 -110 4 -37 -14 -53 -59 -53 -14 0 -27 -4 -30 -9 -5 -8 38 -18
104 -25 14 -2 31 -4 38 -4 6 -1 12 -9 12 -17 0 -8 4 -15 10 -15 5 0 9 6 7 12
-1 7 9 14 23 16 20 2 22 1 10 -7 -8 -6 -11 -11 -7 -11 4 0 3 -9 -3 -20 -6 -11
-14 -18 -19 -16 -4 3 -20 -2 -36 -10 -24 -12 -29 -12 -39 1 -13 18 -84 26 -89
11 -2 -6 -12 -1 -22 11 -18 21 -35 22 -35 2 0 -6 4 -8 9 -4 20 12 20 -15 1
-33 l-21 -19 22 -6 c29 -8 43 1 29 18 -8 9 -5 14 11 18 25 7 51 -2 43 -14 -3
-5 -10 -7 -15 -4 -19 13 -8 -12 16 -33 14 -12 25 -27 25 -33 0 -5 4 -8 8 -5 5
3 21 -3 36 -13 25 -17 26 -19 7 -24 -14 -3 -18 -1 -14 9 3 8 0 14 -6 14 -6 0
-11 -5 -11 -12 0 -6 -9 -1 -19 11 -12 13 -22 18 -26 11 -3 -5 -1 -10 5 -10 13
0 30 -41 23 -54 -3 -4 -15 6 -26 24 -17 27 -22 29 -29 16 -12 -22 -31 -20 -46
5 -7 12 -16 19 -18 16 -11 -11 22 -47 43 -47 13 0 24 -8 28 -20 3 -11 11 -20
16 -20 5 0 9 -4 9 -10 0 -5 -7 -6 -17 -3 -12 5 -14 3 -8 -8 8 -12 6 -12 -8 0
-15 12 -17 11 -17 -9 0 -13 8 -33 17 -44 10 -12 11 -15 3 -8 -8 6 -22 12 -32
12 -10 0 -18 7 -18 15 0 8 4 15 9 15 6 0 8 9 6 20 -2 11 4 24 13 30 13 8 9 9
-18 7 -30 -2 -35 1 -35 21 0 12 -8 31 -18 42 -21 25 -22 34 -3 27 10 -4 13 -1
10 8 -7 18 -35 28 -33 12 3 -27 -2 -47 -12 -47 -7 0 -9 11 -6 27 4 24 4 25 -7
10 -7 -9 -16 -14 -19 -10 -4 3 -18 -2 -32 -11 -24 -16 -25 -16 -25 4 0 13 -7
20 -19 20 -11 0 -23 4 -26 10 -3 6 1 7 9 4 9 -3 16 -2 16 4 0 5 -6 12 -12 14
-20 8 -37 -2 -32 -16 3 -8 -2 -16 -11 -20 -19 -7 -38 1 -31 13 3 4 -6 18 -19
29 -29 25 -43 29 -25 7 6 -8 9 -18 6 -23 -3 -5 6 -15 19 -22 14 -7 25 -20 25
-28 0 -10 -4 -12 -12 -4 -8 5 -22 6 -33 1 -11 -4 -16 -8 -11 -8 6 -1 1 -8 -10
-16 -17 -14 -18 -15 0 -9 11 4 22 1 27 -7 7 -12 10 -12 18 -1 7 11 9 11 14 -2
4 -9 12 -16 19 -16 9 0 9 3 0 12 -14 14 -16 42 -2 33 5 -3 7 0 4 9 -3 8 2 19
13 24 25 14 57 -6 61 -37 2 -15 0 -21 -7 -16 -6 3 -8 11 -5 17 5 7 1 9 -9 5
-10 -3 -17 -2 -17 2 0 5 6 12 13 14 6 3 8 6 2 6 -5 0 -16 -3 -24 -8 -11 -7 -9
-13 8 -30 11 -11 26 -21 31 -21 6 0 10 -6 10 -12 0 -9 3 -8 9 2 6 8 8 17 5 21
-10 16 15 18 31 3 15 -15 17 -15 22 6 6 21 7 22 19 5 7 -10 20 -15 29 -12 20
8 20 -17 -1 -37 -19 -20 -19 -20 -39 0 -8 9 -22 13 -31 10 -14 -5 -14 -8 0
-28 17 -25 21 -58 7 -58 -5 0 -7 9 -4 20 3 11 0 20 -6 20 -6 0 -11 7 -11 16 0
11 -5 14 -16 10 -9 -3 -18 -6 -22 -6 -3 0 3 -7 14 -16 18 -14 18 -15 -3 -4
-13 6 -23 15 -23 20 0 5 -8 6 -17 3 -12 -5 -15 -2 -10 10 3 9 2 19 -3 22 -6 4
-10 -5 -10 -19 0 -28 -9 -33 -27 -15 -8 8 -13 8 -17 0 -4 -6 -2 -11 4 -11 6 0
9 -4 5 -10 -9 -14 -45 27 -39 45 4 10 0 15 -15 15 -24 0 -27 -10 -8 -29 8 -10
8 -12 0 -7 -6 3 -14 2 -18 -3 -3 -6 -13 -7 -22 -4 -11 4 -14 3 -9 -5 4 -7 2
-12 -4 -12 -12 0 -3 48 13 68 8 10 2 12 -26 10 -21 -1 -37 -6 -37 -11 0 -4 -5
-5 -11 -1 -7 4 -10 2 -8 -5 3 -7 8 -12 13 -11 5 1 13 -4 17 -12 7 -10 9 -10 9
0 0 6 5 12 11 12 21 0 2 -24 -24 -31 -17 -5 -30 -2 -38 7 -6 8 -22 14 -35 14
-13 0 -24 4 -24 9 0 5 8 7 19 4 10 -3 22 0 25 6 5 7 1 8 -10 4 -12 -4 -15 -3
-10 5 4 7 17 12 29 13 21 0 21 1 2 8 -18 7 -60 -10 -75 -31 -4 -4 -16 -1 -28
8 -18 12 -20 19 -11 35 10 20 10 20 28 0 19 -21 37 -29 26 -11 -3 6 1 7 9 4
10 -4 16 -1 16 9 0 11 -6 13 -22 9 -16 -4 -20 -1 -16 9 3 8 -1 20 -8 27 -8 7
-14 8 -14 2 0 -14 -47 -13 -52 2 -3 8 -12 6 -29 -6 l-24 -18 26 6 c32 7 48
-10 40 -43 l-6 -23 -14 26 c-15 26 -31 35 -31 15 0 -5 -4 -8 -9 -4 -5 3 -12
-4 -16 -15 -3 -11 -11 -20 -16 -20 -6 0 -7 -4 -4 -10 3 -5 1 -10 -5 -10 -6 0
-8 -4 -5 -10 3 -5 3 -10 -2 -11 -43 -4 -54 -7 -60 -14 -5 -4 0 -5 10 -2 11 4
25 1 33 -8 9 -8 12 -15 8 -15 -3 0 -1 -7 6 -15 10 -12 10 -15 -3 -15 -9 0 -23
10 -31 21 -14 21 -14 21 -27 1 -7 -12 -19 -18 -27 -14 -10 3 -13 1 -8 -6 5 -8
-5 -11 -34 -8 -31 3 -40 1 -37 -8 3 -7 -3 -25 -12 -40 l-18 -26 0 30 c0 23 4
29 15 25 12 -4 12 -2 4 8 -9 11 9 35 85 115 92 97 113 114 113 92 0 -5 -3 -9
-8 -7 -12 4 -53 -43 -46 -54 3 -6 16 1 29 16 13 14 29 25 35 25 6 0 8 5 5 10
-3 6 -2 10 3 10 5 0 9 13 10 30 1 42 8 50 47 48 26 -1 32 -4 25 -13 -7 -9 -6
-14 4 -18 9 -4 17 2 21 14 8 25 65 28 65 2 0 -14 2 -14 18 -2 26 22 72 24 72
4 0 -9 -9 -19 -20 -22 -11 -3 -20 -9 -20 -14 0 -5 -5 -9 -11 -9 -5 0 -7 6 -3
13 5 9 4 9 -6 0 -10 -9 -9 -16 4 -34 16 -23 16 -23 16 -2 0 26 16 39 23 19 3
-8 1 -17 -6 -20 -7 -2 -3 -5 8 -5 14 -1 20 6 21 22 5 71 1 68 88 65 76 -3 80
-4 86 -28 4 -17 8 -21 14 -12 4 7 4 21 1 32 -5 16 -2 20 15 20 35 0 127 49
156 83 41 48 54 89 54 164 0 95 -32 162 -96 203 l-47 29 -3 128 c-6 227 -13
318 -29 359 l-15 39 6 -37 c4 -21 4 -38 2 -38 -3 0 -19 23 -36 50 -32 52 -43
59 -60 38z m38 -508 c0 -5 -6 -10 -14 -10 -8 0 -18 5 -21 10 -3 6 3 10 14 10
12 0 21 -4 21 -10z m459 -305 c1 -56 6 -106 11 -111 7 -7 5 -17 -4 -30 -30
-40 -36 -5 -29 161 8 176 21 163 22 -20z m-331 133 c25 -46 32 -91 22 -129
-11 -41 -37 -77 -60 -81 -8 -2 -21 -9 -28 -15 -20 -19 -27 -16 -28 15 0 15 -4
59 -9 99 l-8 72 44 3 c41 3 44 5 41 31 -4 33 10 35 26 5z m-130 -110 c26 -140
26 -135 0 -141 -37 -10 -55 -8 -72 8 -8 8 -24 19 -34 23 -19 7 -19 9 8 77 24
62 52 94 81 95 3 0 11 -28 17 -62z m362 -278 c0 -13 6 -17 20 -13 11 3 20 9
20 14 0 5 5 9 10 9 12 0 14 -27 3 -33 -5 -2 -19 -7 -33 -10 -21 -5 -28 0 -42
27 -16 33 -16 34 3 29 10 -3 19 -13 19 -23z m142 -37 c10 3 18 2 18 -3 0 -4 9
-10 20 -13 12 -3 20 -13 19 -24 -1 -16 -2 -16 -6 0 -2 9 -13 17 -24 17 -29 0
-34 -3 -32 -20 2 -8 -2 -5 -8 7 -17 32 -46 36 -46 7 0 -25 40 -59 57 -49 14 9
12 -7 -4 -27 -18 -24 -30 -23 -23 2 3 11 2 20 -1 21 -4 0 -15 2 -24 4 -10 2
-18 -2 -18 -8 0 -5 -3 -7 -6 -4 -4 4 -1 13 6 22 10 12 10 15 0 15 -10 0 -10 3
-1 14 7 9 8 17 2 20 -12 8 -42 -4 -36 -14 3 -5 -4 -6 -15 -3 -11 3 -20 9 -20
13 0 11 50 26 83 25 15 -1 26 4 24 10 -2 5 -9 10 -14 10 -20 0 -28 16 -13 25
11 7 19 2 30 -21 10 -21 20 -29 32 -26z m418 32 c0 -8 -4 -15 -10 -15 -5 0
-10 7 -10 15 0 8 5 15 10 15 6 0 10 -7 10 -15z m15 -34 c10 -17 -9 -20 -30 -5
-18 14 -18 14 2 14 12 0 24 -4 28 -9z m-313 -37 c-12 -8 -22 -22 -22 -30 0 -8
-3 -14 -7 -15 -5 0 -16 -2 -26 -4 -9 -2 -15 1 -11 6 3 5 12 9 20 9 11 0 13 6
9 22 -6 17 -4 20 9 15 9 -4 16 -2 16 3 0 6 8 10 17 10 14 0 13 -3 -5 -16z
m498 1 c0 -8 -4 -15 -10 -15 -5 0 -7 7 -4 15 4 8 8 15 10 15 2 0 4 -7 4 -15z
m-422 -36 c-18 -12 -41 -11 -33 1 4 6 11 8 16 4 6 -3 13 5 17 17 5 21 7 21 10
5 2 -10 -2 -22 -10 -27z m572 17 c0 -8 -9 -18 -20 -21 -11 -4 -18 -11 -15 -16
4 -5 1 -9 -4 -9 -6 0 -11 -5 -11 -10 0 -7 7 -7 21 1 16 8 20 8 14 -1 -4 -7 -1
-10 10 -8 10 2 20 -3 22 -10 4 -9 -2 -11 -20 -7 -20 5 -27 2 -32 -14 -3 -12
-11 -21 -17 -21 -6 0 -21 -11 -34 -26 -23 -24 -24 -24 -24 -4 0 14 -4 19 -12
14 -9 -5 -8 -2 1 10 11 12 16 14 22 5 12 -20 42 17 36 46 -2 14 0 25 4 25 5 0
12 12 15 26 4 16 12 23 20 20 8 -3 14 -1 14 4 0 6 2 10 5 10 3 0 5 -6 5 -14z
m-1672 -10 c-4 -17 43 -60 51 -48 3 5 15 6 25 2 17 -6 15 -8 -14 -18 -18 -7
-31 -9 -27 -5 4 3 -3 13 -15 21 -19 14 -22 13 -34 -3 -17 -23 -18 -42 -1 -48
6 -2 0 -4 -15 -3 -35 1 -35 17 -3 47 30 29 32 39 5 32 -16 -4 -19 -2 -14 11 3
9 10 13 15 10 5 -3 9 0 9 5 0 6 5 11 10 11 6 0 10 -6 8 -14z m1042 -3 c0 -7
-4 -13 -9 -13 -5 0 -11 6 -14 13 -3 8 1 14 9 14 8 0 14 -6 14 -14z m245 -12
c-13 -12 -19 -13 -22 -3 -3 6 -10 9 -15 6 -7 -5 -8 -2 -4 5 5 7 14 10 22 7 8
-3 14 -1 14 5 0 6 5 7 11 3 7 -4 5 -12 -6 -23z m161 5 c2 -13 -1 -15 -8 -8 -6
6 -17 8 -24 5 -8 -3 -14 1 -14 10 0 22 43 16 46 -7z m402 -13 c-10 -12 -9 -18
7 -29 17 -12 17 -14 2 -14 -9 0 -17 5 -17 11 0 5 -4 7 -10 4 -5 -3 -10 -4 -10
-1 0 2 -3 12 -7 22 -4 11 -3 15 4 11 6 -4 14 0 17 9 3 8 11 12 16 9 8 -5 7
-12 -2 -22z m-1134 -9 c10 -25 -1 -29 -14 -5 -6 12 -7 21 -1 21 5 0 12 -7 15
-16z m809 -6 c12 3 19 1 14 -3 -22 -25 -67 -9 -50 18 6 9 8 8 11 -4 2 -12 10
-15 25 -11z m-83 -9 c0 -6 -4 -7 -10 -4 -5 3 -10 11 -10 16 0 6 5 7 10 4 6 -3
10 -11 10 -16z m-616 -3 c-6 -16 -34 -30 -34 -18 0 10 22 32 32 32 4 0 5 -6 2
-14z m256 -7 c0 -6 -4 -7 -10 -4 -5 3 -10 11 -10 16 0 6 5 7 10 4 6 -3 10 -11
10 -16z m-150 -9 c0 -19 -18 -19 -23 -1 -3 14 -1 18 9 14 8 -3 14 -9 14 -13z
m985 10 c8 -13 -5 -13 -25 0 -13 8 -13 10 2 10 9 0 20 -4 23 -10z m-1807 -30
c-1 -17 -4 -33 -8 -35 -13 -8 -20 38 -8 52 15 19 17 17 16 -17z m38 5 c3 -17
-12 -20 -21 -5 -7 12 4 34 13 25 3 -3 7 -12 8 -20z m1324 10 c-6 -8 -9 -18 -6
-24 3 -5 -3 -7 -14 -4 -25 7 -25 12 -2 29 23 18 37 18 22 -1z m110 5 c0 -5 -5
-10 -11 -10 -5 0 -7 5 -4 10 3 6 8 10 11 10 2 0 4 -4 4 -10z m-1017 -13 c-3
-5 1 -13 8 -18 8 -5 10 -9 4 -9 -5 0 -20 8 -33 18 l-23 18 25 0 c13 0 22 -4
19 -9z m1383 -8 c6 -5 16 -3 24 4 7 6 10 7 7 1 -3 -6 0 -11 7 -11 9 0 12 7 9
16 -4 11 0 9 10 -4 9 -11 17 -23 17 -28 0 -11 -62 -5 -78 7 -9 7 -16 6 -22 -3
-5 -9 -9 -10 -14 -2 -4 6 -11 9 -16 6 -9 -6 -21 20 -13 29 7 7 54 -3 69 -15z
m-1728 -1 c-2 -7 4 -12 12 -10 8 2 -1 -12 -20 -31 -37 -36 -56 -41 -25 -7 10
11 15 20 11 20 -4 0 -2 9 4 20 12 22 21 26 18 8z m205 -3 c-3 -9 -8 -14 -10
-11 -3 3 -2 9 2 15 9 16 15 13 8 -4z m214 0 c0 -8 -4 -15 -9 -15 -4 0 -8 -7
-8 -15 0 -8 -7 -15 -15 -15 -15 0 -10 24 9 47 15 17 23 16 23 -2z m233 -3 c7
2 14 -1 16 -7 2 -5 -7 -10 -20 -10 -13 0 -22 3 -19 8 2 4 -1 7 -6 7 -6 0 -11
5 -11 11 0 8 4 8 14 0 8 -6 19 -10 26 -9z m541 -5 c-10 -9 -11 -8 -5 6 3 10 9
15 12 12 3 -3 0 -11 -7 -18z m120 -4 c-11 -7 -19 -19 -17 -26 1 -6 1 -9 -1 -4
-3 4 -10 7 -17 7 -7 0 -13 7 -13 15 0 8 9 15 19 15 10 0 18 4 18 10 0 5 7 7
15 3 14 -5 13 -8 -4 -20z m-1475 -9 c-5 -18 -3 -24 5 -19 8 6 8 1 -1 -14 -9
-17 -15 -20 -25 -11 -9 8 -14 7 -19 -5 -5 -15 -47 -22 -45 -7 4 21 -2 42 -12
42 -5 0 -8 -4 -5 -9 3 -5 -1 -11 -9 -15 -19 -7 -19 8 0 24 8 6 19 8 26 4 20
-12 71 -15 64 -3 -4 5 -15 7 -26 4 -27 -9 -24 4 4 14 14 5 25 4 29 -3 5 -7 8
-5 8 7 0 9 3 17 6 17 3 0 3 -12 0 -26z m244 18 c0 -5 -9 -19 -20 -32 -21 -25
-27 -60 -9 -60 5 0 7 5 4 11 -4 5 5 21 19 34 14 13 26 20 26 15 0 -6 7 -10 16
-10 10 0 14 6 11 14 -4 10 -1 13 9 9 19 -7 18 -19 -3 -27 -15 -6 -15 -8 -3
-16 8 -5 12 -12 8 -15 -3 -4 -15 2 -26 13 -16 16 -23 18 -30 9 -15 -18 -15
-29 0 -39 10 -7 9 -8 -4 -4 -12 4 -18 0 -18 -11 0 -15 -2 -15 -13 2 -8 10 -19
15 -25 11 -6 -3 -5 6 3 21 8 16 18 40 24 56 10 25 31 38 31 19z m1360 1 c0 -3
-8 -15 -17 -26 -13 -15 -15 -21 -5 -24 6 -3 12 -10 12 -16 0 -7 -6 -5 -16 4
-12 13 -13 20 -3 42 11 25 29 37 29 20z m-1180 -33 c0 -5 -7 -7 -15 -4 -11 5
-13 2 -9 -10 3 -9 1 -16 -6 -16 -6 0 -8 5 -5 10 3 6 1 10 -4 10 -6 0 -11 -5
-11 -11 0 -5 -5 -7 -12 -3 -9 6 -9 9 0 12 7 2 10 8 7 13 -4 5 1 6 10 3 11 -5
14 -2 9 11 -6 15 -4 16 14 6 12 -7 22 -16 22 -21z m437 8 c-3 -8 -6 -5 -6 6
-1 11 2 17 5 13 3 -3 4 -12 1 -19z m468 12 c3 -6 -1 -7 -9 -4 -18 7 -21 14 -7
14 6 0 13 -4 16 -10z m320 -25 c-4 -33 3 -44 19 -27 4 4 20 7 34 7 15 0 26 5
25 10 -1 6 21 9 53 8 38 -2 54 1 54 10 1 6 7 -3 15 -21 8 -18 19 -31 23 -28 5
3 9 -7 8 -22 -1 -27 -1 -27 -33 -13 -29 13 -30 16 -15 27 15 11 15 15 3 26
-12 11 -13 10 -8 -3 4 -13 1 -15 -14 -12 -13 4 -19 0 -19 -11 0 -10 -6 -13
-15 -10 -8 4 -15 1 -15 -5 0 -8 -6 -9 -17 -3 -10 5 -25 7 -33 5 -13 -4 -13 -3
0 6 27 19 -6 28 -57 16 -18 -4 -33 -12 -33 -17 0 -5 -5 -6 -11 -2 -8 4 -8 9 0
17 14 14 14 30 1 22 -16 -10 -11 17 7 37 24 27 33 22 28 -17z m-1551 13 c-3
-4 -9 -8 -15 -8 -5 0 -9 4 -9 8 0 5 7 9 15 9 8 0 12 -4 9 -9z m816 3 c0 -5 -6
-14 -14 -20 -11 -9 -16 -9 -21 0 -4 6 -1 15 6 20 18 11 29 11 29 0z m-1079
-18 c13 -16 12 -17 -3 -4 -10 7 -18 15 -18 17 0 8 8 3 21 -13z m514 7 c-3 -5
-10 -10 -16 -10 -5 0 -9 5 -9 10 0 6 7 10 16 10 8 0 12 -4 9 -10z m362 4 c-3
-3 -12 -4 -19 -1 -8 3 -5 6 6 6 11 1 17 -2 13 -5z m320 0 c-3 -3 -12 -4 -19
-1 -8 3 -5 6 6 6 11 1 17 -2 13 -5z m73 -10 c0 -8 -5 -12 -10 -9 -6 4 -8 11
-5 16 9 14 15 11 15 -7z m266 -9 c-8 -8 -18 -15 -22 -15 -3 0 -1 7 6 15 7 8
17 15 22 15 5 0 3 -7 -6 -15z m504 5 c0 -5 -4 -10 -10 -10 -5 0 -10 5 -10 10
0 6 5 10 10 10 6 0 10 -4 10 -10z m-1798 -12 c-8 -8 -9 -15 0 -25 12 -15 5
-28 -11 -18 -18 11 -13 55 6 55 13 0 14 -3 5 -12z m108 -9 c0 -6 -6 -17 -14
-24 -12 -12 -15 -11 -19 5 -3 11 -1 18 4 14 5 -3 9 2 9 11 0 9 5 13 10 10 6
-3 10 -11 10 -16z m320 16 c0 -2 -9 -9 -20 -15 -12 -6 -20 -7 -20 -1 0 5 8 12
18 14 9 3 18 5 20 6 1 0 2 -1 2 -4z m1060 -25 c0 -5 -9 -6 -20 -3 -11 3 -17 9
-15 14 7 10 35 1 35 -11z m-1729 -4 c13 2 17 1 9 -2 -8 -4 -18 -11 -21 -16 -3
-5 -14 2 -25 14 -10 13 -12 17 -3 11 8 -7 26 -10 40 -7z m509 4 c0 -5 -2 -10
-4 -10 -3 0 -8 5 -11 10 -3 6 -1 10 4 10 6 0 11 -4 11 -10z m670 0 c0 -5 -2
-10 -4 -10 -3 0 -8 5 -11 10 -3 6 -1 10 4 10 6 0 11 -4 11 -10z m-1290 -10 c0
-5 -4 -10 -10 -10 -5 0 -10 5 -10 10 0 6 5 10 10 10 6 0 10 -4 10 -10z m55 0
c8 -13 -15 -13 -35 0 -12 8 -11 10 7 10 12 0 25 -4 28 -10z m254 1 c18 -11 0
-22 -28 -16 -20 4 -21 2 -9 -12 7 -9 8 -14 2 -10 -7 4 -17 0 -24 -8 -17 -21
-44 -20 -36 1 4 12 2 15 -9 10 -8 -3 -15 -2 -15 2 0 12 68 34 80 27 5 -3 10
-1 10 4 0 13 10 14 29 2z m351 -1 c0 -5 -5 -10 -11 -10 -5 0 -7 5 -4 10 3 6 8
10 11 10 2 0 4 -4 4 -10z m-270 -10 c0 -5 -2 -10 -4 -10 -3 0 -8 5 -11 10 -3
6 -1 10 4 10 6 0 11 -4 11 -10z m1255 0 c3 -5 1 -10 -4 -10 -6 0 -11 5 -11 10
0 6 2 10 4 10 3 0 8 -4 11 -10z m-1728 -21 c4 -12 11 -18 20 -15 10 4 9 -1 -4
-19 -19 -26 -43 -33 -43 -12 0 8 -4 7 -10 -3 -14 -22 -12 -30 6 -23 12 4 15 2
12 -8 -3 -8 -12 -13 -21 -11 -12 2 -15 -2 -11 -13 5 -11 2 -14 -12 -9 -11 3
-5 -7 16 -25 20 -18 28 -31 20 -31 -13 0 -13 -2 0 -10 12 -8 10 -10 -8 -10
-16 0 -21 -4 -16 -12 5 -9 2 -9 -9 1 -9 7 -17 20 -17 27 0 8 -5 14 -11 14 -5
0 -7 -5 -3 -12 4 -7 3 -8 -5 -4 -14 9 -9 30 7 32 23 3 24 4 15 17 -5 6 -8 18
-7 25 1 6 2 23 3 36 1 24 48 86 64 86 5 0 11 -9 14 -21z m263 11 c0 -5 -2 -10
-4 -10 -3 0 -8 5 -11 10 -3 6 -1 10 4 10 6 0 11 -4 11 -10z m384 -7 c-23 -17
-35 -16 -28 1 3 8 15 14 25 13 19 -1 19 -2 3 -14z m1297 4 c-6 -8 -9 -17 -6
-21 3 -3 0 -2 -6 3 -12 10 -4 31 13 31 7 0 7 -4 -1 -13z m109 -10 c11 -5 9 -6
-4 -4 -11 1 -21 9 -23 17 -3 10 -2 11 4 4 4 -6 15 -14 23 -17z m-1898 -12 c13
5 14 0 5 -35 -7 -23 -13 -37 -15 -31 -2 6 -8 9 -13 6 -5 -4 -6 1 -3 9 3 9 11
16 16 16 6 0 5 6 -2 15 -7 8 -16 12 -21 10 -4 -3 -7 4 -6 15 1 19 3 19 13 5 6
-8 18 -13 26 -10z m78 15 c0 -6 10 -15 23 -21 21 -9 20 -9 -4 -4 -21 4 -28 0
-32 -15 -3 -11 -13 -18 -25 -17 -16 1 -19 5 -11 19 5 10 14 18 19 18 6 0 9 3
9 8 -3 14 1 22 11 22 6 0 10 -5 10 -10z m-140 -15 c0 -7 -7 -12 -15 -12 -8 0
-16 5 -18 12 -3 6 4 11 14 11 11 0 19 -5 19 -11z m401 -2 c13 -16 12 -17 -3
-4 -17 13 -22 21 -14 21 2 0 10 -8 17 -17z m49 -4 c0 -6 -4 -7 -10 -4 -5 3
-10 11 -10 16 0 6 5 7 10 4 6 -3 10 -11 10 -16z m1247 15 c-3 -3 -12 -4 -19
-1 -8 3 -5 6 6 6 11 1 17 -2 13 -5z m223 -4 c0 -5 -4 -10 -10 -10 -5 0 -10 5
-10 10 0 6 5 10 10 10 6 0 10 -4 10 -10z m-1547 -30 c9 0 17 -5 17 -11 0 -6
-7 -8 -16 -5 -9 3 -20 6 -24 6 -5 0 -15 10 -21 23 -12 21 -11 21 8 5 11 -10
27 -18 36 -18z m1652 0 c1 -11 -4 -20 -12 -20 -13 0 -18 31 -6 43 9 10 16 0
18 -23z m48 23 c-7 -2 -19 -2 -25 0 -7 3 -2 5 12 5 14 0 19 -2 13 -5z m125
-12 c-2 -8 -9 -16 -17 -19 -8 -3 -11 0 -7 7 4 6 2 11 -3 11 -6 0 -11 4 -11 9
0 6 9 9 20 8 12 -1 19 -7 18 -16z m-1901 -6 c0 -17 -13 -20 -21 -6 -4 5 0 12
6 14 7 3 13 6 14 6 0 1 1 -6 1 -14z m313 5 c0 -5 -2 -10 -4 -10 -3 0 -8 5 -11
10 -3 6 -1 10 4 10 6 0 11 -4 11 -10z m1521 3 c0 -5 2 -17 4 -27 6 -29 -5 -40
-20 -20 -13 18 -9 54 6 54 5 0 9 -3 10 -7z m-2174 -10 c-4 -3 0 -15 10 -25 9
-10 12 -18 7 -18 -12 0 -34 36 -27 44 4 3 9 6 11 6 3 0 2 -3 -1 -7z m1823 3
c0 -3 -4 -8 -10 -11 -5 -3 -10 -1 -10 4 0 6 5 11 10 11 6 0 10 -2 10 -4z m105
-7 c11 -17 -1 -21 -15 -4 -8 9 -8 15 -2 15 6 0 14 -5 17 -11z m40 1 c-3 -6 0
-13 9 -16 9 -3 12 -12 9 -21 -4 -9 -2 -14 3 -10 6 3 10 -3 11 -13 1 -11 -2
-22 -8 -25 -5 -4 -9 3 -9 15 0 15 -5 20 -17 18 -10 -2 -17 -10 -15 -16 1 -7
-2 -12 -8 -12 -14 0 -13 7 7 37 13 19 14 28 5 31 -17 5 -15 22 4 22 8 0 12 -5
9 -10z m-1752 -40 c3 -12 0 -17 -9 -13 -7 2 -10 11 -7 19 3 8 0 14 -6 14 -6 0
-11 5 -11 11 0 17 27 -8 33 -31z m77 11 c7 -14 7 -22 -2 -27 -6 -4 -8 -3 -5 3
4 6 0 13 -8 17 -8 3 -15 10 -15 16 0 17 19 11 30 -9z m1367 13 c-3 -3 -12 -4
-19 -1 -8 3 -5 6 6 6 11 1 17 -2 13 -5z m548 -34 c-11 -22 -12 -29 -2 -33 31
-11 -15 -23 -55 -15 -36 8 -32 20 4 13 34 -7 37 -5 33 14 -2 12 1 21 6 21 6 0
8 9 4 20 -5 15 -3 18 9 14 14 -5 14 -9 1 -34z m-1701 15 c-4 -8 -8 -15 -10
-15 -2 0 -4 7 -4 15 0 8 4 15 10 15 5 0 7 -7 4 -15z m996 -1 c0 -2 -7 -4 -15
-4 -8 0 -15 4 -15 10 0 5 7 7 15 4 8 -4 15 -8 15 -10z m810 -9 c0 -1 -9 -5
-19 -8 -13 -3 -18 -1 -14 9 4 10 33 10 33 -1z m155 5 c-3 -5 1 -10 10 -10 13
0 14 -2 3 -14 -9 -10 -15 -11 -20 -2 -11 16 -10 36 3 36 5 0 7 -4 4 -10z
m-2465 -20 c8 13 11 13 22 1 8 -9 9 -11 1 -7 -6 3 -19 -4 -27 -16 -9 -12 -16
-17 -16 -10 0 6 -11 12 -25 12 -24 0 -24 1 -7 19 15 17 18 17 30 2 11 -14 14
-14 22 -1z m2120 6 c0 -3 -4 -8 -10 -11 -5 -3 -10 -1 -10 4 0 6 5 11 10 11 6
0 10 -2 10 -4z m-2286 -22 c5 -12 2 -15 -10 -10 -8 3 -18 6 -20 6 -3 0 -2 5 1
10 9 15 22 12 29 -6z m499 -9 c-3 -8 -10 -15 -15 -15 -7 0 -6 5 1 13 6 8 7 18
3 22 -4 5 -2 5 5 1 7 -4 10 -13 6 -21z m154 3 c-3 -8 -6 -5 -6 6 -1 11 2 17 5
13 3 -3 4 -12 1 -19z m1558 12 c23 -9 25 -13 15 -25 -7 -8 -20 -14 -29 -14
-13 1 -13 2 2 6 21 5 23 23 3 23 -8 0 -18 5 -21 10 -8 13 -3 13 30 0z m-1742
-21 c-4 -15 -8 -17 -14 -8 -8 14 -3 29 11 29 4 0 6 -9 3 -21z m2011 5 c5 -14
4 -15 -9 -4 -17 14 -19 20 -6 20 5 0 12 -7 15 -16z m-489 -4 c3 -6 0 -16 -8
-24 -11 -12 -15 -11 -25 4 -6 10 -8 21 -5 24 10 9 31 7 38 -4z m-2011 -6 c20
-8 21 -30 1 -38 -21 -8 -19 -21 8 -35 12 -6 14 -9 5 -7 -10 3 -18 1 -18 -4 0
-6 -5 -10 -11 -10 -6 0 -9 6 -6 14 4 9 -3 17 -16 21 -22 7 -22 7 3 15 14 4 20
8 14 9 -7 1 -15 9 -18 18 -6 15 -4 15 14 -2 21 -19 29 -8 8 13 -13 13 -8 15
16 6z m2473 -16 c-3 -8 -6 -5 -6 6 -1 11 2 17 5 13 3 -3 4 -12 1 -19z m103 12
c12 -8 9 -10 -12 -10 -16 0 -28 5 -28 10 0 13 20 13 40 0z m-2250 -15 c0 -8
-2 -15 -4 -15 -2 0 -6 7 -10 15 -3 8 -1 15 4 15 6 0 10 -7 10 -15z m1960 11
c0 -3 -4 -8 -10 -11 -5 -3 -10 -1 -10 4 0 6 5 11 10 11 6 0 10 -2 10 -4z
m-2089 -23 c13 -15 12 -15 -8 -4 -24 12 -29 21 -14 21 5 0 15 -7 22 -17z
m2179 7 c0 -5 -8 -10 -17 -10 -15 0 -16 2 -3 10 19 12 20 12 20 0z m135 1 c-3
-5 5 -13 17 -17 13 -4 32 -13 43 -21 19 -14 19 -15 -5 -7 -14 4 -42 6 -62 5
-23 -1 -38 3 -38 9 0 7 8 9 21 5 15 -5 19 -4 15 4 -7 11 0 31 10 31 3 0 3 -4
-1 -9z m-181 -9 c2 -4 -5 -9 -17 -9 -17 -2 -19 0 -7 7 18 12 18 12 24 2z m96
-9 c0 -12 -8 -18 -24 -19 -17 -1 -23 3 -19 11 2 8 11 11 19 8 8 -3 14 0 14 6
0 6 2 11 5 11 3 0 5 -8 5 -17z m-248 -15 c-9 -9 -15 -9 -24 0 -9 9 -7 12 12
12 19 0 21 -3 12 -12z m-2268 -40 c-3 -5 0 -16 7 -24 10 -12 9 -13 -4 -9 -19
8 -29 42 -11 42 7 0 11 -4 8 -9z m266 5 c0 -14 -19 -38 -25 -32 -8 8 5 39 16
39 5 0 9 -3 9 -7z m2073 -13 c3 -11 4 -20 3 -20 -1 0 -9 9 -19 20 -13 15 -14
20 -3 20 7 0 16 -9 19 -20z m62 10 c3 -5 1 -10 -4 -10 -6 0 -11 5 -11 10 0 6
2 10 4 10 3 0 8 -4 11 -10z m241 -15 c0 -14 -5 -24 -10 -22 -14 5 -14 47 0 47
6 0 11 -11 10 -25z m-2246 -18 c0 -4 -6 -2 -14 5 -8 7 -12 17 -9 22 5 8 23
-12 23 -27z m2100 17 c0 -8 -4 -12 -10 -9 -5 3 -10 10 -10 16 0 5 5 9 10 9 6
0 10 -7 10 -16z m-2270 -4 c0 -5 -5 -10 -11 -10 -5 0 -7 5 -4 10 3 6 8 10 11
10 2 0 4 -4 4 -10z m-253 -32 c-3 -7 -5 -2 -5 12 0 14 2 19 5 13 2 -7 2 -19 0
-25z m2568 14 c-3 -3 -11 0 -18 7 -9 10 -8 11 6 5 10 -3 15 -9 12 -12z m238
-2 c-3 -11 -9 -20 -14 -20 -11 0 -11 3 -3 24 9 23 23 20 17 -4z m-2836 -15
c-4 -8 -11 -15 -17 -15 -7 0 -7 6 0 21 13 23 26 19 17 -6z m93 -4 c-12 -24
-40 -35 -40 -17 0 8 9 16 21 19 13 4 18 10 13 18 -4 8 -3 10 4 5 8 -5 9 -13 2
-25z m2440 9 c-9 -5 -9 -9 -1 -14 13 -9 15 -26 2 -26 -13 0 -24 37 -16 50 4 6
11 7 17 4 7 -4 6 -9 -2 -14z m-2404 -15 c1 -8 -4 -15 -11 -15 -8 0 -11 7 -8
20 6 22 15 19 19 -5z m2727 8 c-5 -12 -3 -14 7 -8 9 5 11 4 6 -3 -4 -7 -2 -12
3 -12 6 0 11 -5 11 -12 0 -6 -9 -3 -20 7 -21 19 -27 45 -10 45 5 0 6 -7 3 -17z
m-53 -7 c0 -2 -7 -6 -15 -10 -8 -3 -15 -1 -15 4 0 6 7 10 15 10 8 0 15 -2 15
-4z m-2841 -45 c-15 -5 -22 6 -14 19 6 9 10 9 16 -1 5 -8 4 -15 -2 -18z m2805
8 c-6 -11 -24 -2 -24 11 0 5 7 7 15 4 8 -4 12 -10 9 -15z m-158 0 c3 -6 2 -15
-4 -21 -6 -6 -11 -2 -15 11 -5 22 7 29 19 10z m-2466 -23 c-7 -7 -14 -6 -21 1
-9 9 -7 12 9 10 14 -1 18 -5 12 -11z m2567 -8 c-3 -8 -6 -5 -6 6 -1 11 2 17 5
13 3 -3 4 -12 1 -19z m-2627 2 c0 -5 -7 -7 -15 -4 -8 4 -15 8 -15 10 0 2 7 4
15 4 8 0 15 -4 15 -10z m2485 0 c3 -6 -1 -7 -9 -4 -18 7 -21 14 -7 14 6 0 13
-4 16 -10z m95 0 c0 -5 -2 -10 -4 -10 -3 0 -8 5 -11 10 -3 6 -1 10 4 10 6 0
11 -4 11 -10z m145 0 c17 -8 16 -8 -7 -7 -16 1 -28 5 -28 9 0 10 9 9 35 -2z
m-337 -35 c-3 -3 -9 2 -12 12 -6 14 -5 15 5 6 7 -7 10 -15 7 -18z m278 -2
c-10 -10 -19 5 -10 18 6 11 8 11 12 0 2 -7 1 -15 -2 -18z m-2696 7 c0 -5 -4
-10 -10 -10 -5 0 -10 5 -10 10 0 6 5 10 10 10 6 0 10 -4 10 -10z m-43 -20 c-1
-11 -5 -20 -9 -20 -3 0 -6 9 -5 20 1 11 5 20 9 20 3 0 6 -9 5 -20z m2793 0 c0
-5 -2 -10 -4 -10 -3 0 -8 5 -11 10 -3 6 -1 10 4 10 6 0 11 -4 11 -10z m-2740
-4 c0 -3 -4 -8 -10 -11 -5 -3 -10 -1 -10 4 0 6 5 11 10 11 6 0 10 -2 10 -4z
m2447 -2 c-3 -3 -12 -4 -19 -1 -8 3 -5 6 6 6 11 1 17 -2 13 -5z m-2227 -8 c0
-3 -4 -8 -10 -11 -5 -3 -10 -1 -10 4 0 6 5 11 10 11 6 0 10 -2 10 -4z m-421
-42 c-24 -29 -30 -17 -20 35 1 2 8 -2 16 -9 12 -10 13 -16 4 -26z m2636 27
c10 -17 -15 -23 -31 -7 -14 15 -14 16 5 16 11 0 22 -4 26 -9z m258 2 c-7 -2
-19 -2 -25 0 -7 3 -2 5 12 5 14 0 19 -2 13 -5z m-99 -59 c4 -10 1 -14 -6 -12
-15 5 -23 28 -10 28 5 0 13 -7 16 -16z m-2784 -4 c0 -5 -2 -10 -4 -10 -3 0 -8
5 -11 10 -3 6 -1 10 4 10 6 0 11 -4 11 -10z m-70 -60 c0 -5 -8 -10 -17 -10
-15 0 -16 2 -3 10 19 12 20 12 20 0z m-76 -39 c4 -5 -4 -7 -16 -3 -14 3 -19 2
-14 -6 4 -7 3 -12 -3 -12 -13 0 -22 15 -14 24 9 9 41 7 47 -3z m3263 -27 c-3
-3 -12 -4 -19 -1 -8 3 -5 6 6 6 11 1 17 -2 13 -5z m39 -76 c3 -5 39 -8 79 -8
64 0 74 -2 68 -16 -3 -9 0 -20 8 -26 11 -8 11 -9 -3 -5 -18 6 -32 -29 -22 -60
4 -11 3 -14 -3 -6 -12 16 -113 -61 -113 -87 0 -34 20 -32 85 9 l64 41 11 -38
c16 -60 13 -78 -18 -91 -15 -7 -41 -24 -56 -38 -26 -24 -28 -29 -21 -77 23
-160 23 -180 5 -199 -15 -16 -20 -17 -39 -6 -22 15 -28 29 -11 29 13 0 3 63
-15 100 -7 14 -20 63 -30 110 -10 47 -20 95 -22 107 -4 16 1 23 18 26 17 4 13
5 -11 5 -53 0 -54 1 -38 20 9 11 15 43 17 88 2 57 -3 82 -23 129 -14 31 -26
59 -26 62 0 6 90 -59 96 -69z m29 52 l20 -9 -20 0 c-17 -1 -17 -3 -5 -11 20
-13 4 -13 -21 1 -11 5 -17 14 -14 20 7 11 13 11 40 -1z m45 -4 c0 -2 -8 -10
-17 -17 -16 -13 -17 -12 -4 4 13 16 21 21 21 13z m125 -5 c3 -5 2 -12 -3 -15
-5 -3 -9 1 -9 9 0 17 3 19 12 6z m53 -46 c-3 -3 -13 7 -23 22 l-17 28 23 -22
c12 -12 20 -25 17 -28z m-87 12 c-10 -9 -11 -8 -5 6 3 10 9 15 12 12 3 -3 0
-11 -7 -18z m-371 -38 c0 -6 -4 -7 -10 -4 -5 3 -10 11 -10 16 0 6 5 7 10 4 6
-3 10 -11 10 -16z m402 4 c-6 -2 -9 -10 -6 -15 4 -7 2 -8 -4 -4 -18 11 -14 26
6 25 10 0 12 -3 4 -6z m-3662 -23 c0 -5 -4 -10 -10 -10 -5 0 -10 5 -10 10 0 6
5 10 10 10 6 0 10 -4 10 -10z m3304 -25 c3 -9 0 -15 -9 -15 -9 0 -12 6 -9 15
4 8 7 15 9 15 2 0 5 -7 9 -15z m337 -12 c-12 -20 -14 -14 -5 12 4 9 9 14 11
11 3 -2 0 -13 -6 -23z m91 -30 c6 1 13 -5 15 -13 4 -13 3 -13 -6 0 -6 8 -11
11 -11 6 0 -6 -13 3 -30 19 -16 16 -30 33 -30 38 0 5 12 -5 26 -22 14 -17 30
-30 36 -28z m-17 47 c3 -5 1 -10 -4 -10 -6 0 -11 5 -11 10 0 6 2 10 4 10 3 0
8 -4 11 -10z m16 -23 c-10 -9 -11 -8 -5 6 3 10 9 15 12 12 3 -3 0 -11 -7 -18z
m-111 9 c0 -3 -4 -8 -10 -11 -5 -3 -10 -1 -10 4 0 6 5 11 10 11 6 0 10 -2 10
-4z m-223 -33 c-3 -3 -11 -2 -17 2 -9 6 -9 10 1 16 14 8 27 -7 16 -18z m213
-27 c0 -3 -4 -8 -10 -11 -5 -3 -10 -1 -10 4 0 6 5 11 10 11 6 0 10 -2 10 -4z
m100 -24 c3 -3 -4 -2 -14 2 -12 4 -23 2 -27 -6 -5 -8 -8 -5 -6 9 1 18 4 20 22
11 11 -6 22 -13 25 -16z m-3737 3 c-3 -9 -8 -14 -10 -11 -3 3 -2 9 2 15 9 16
15 13 8 -4z m3607 0 c0 -2 -6 -5 -13 -8 -8 -3 -14 1 -14 8 0 7 6 11 14 8 7 -3
13 -6 13 -8z m174 -35 c-5 -5 -16 -5 -24 1 -13 9 -12 10 3 5 11 -4 17 0 18 12
0 12 2 13 6 4 3 -8 1 -18 -3 -22z m-230 11 c3 -5 -1 -11 -9 -15 -8 -3 -17 0
-21 6 -4 7 -3 8 4 4 7 -4 12 -2 12 3 0 13 7 14 14 2z m183 3 c-3 -3 -12 -4
-19 -1 -8 3 -5 6 6 6 11 1 17 -2 13 -5z m-3637 -14 c0 -5 -2 -10 -4 -10 -3 0
-8 5 -11 10 -3 6 -1 10 4 10 6 0 11 -4 11 -10z m3613 -20 c-3 -12 -8 -19 -11
-16 -5 6 5 36 12 36 2 0 2 -9 -1 -20z m95 -45 c-3 -27 -4 -27 -18 -10 -12 15
-12 17 -1 10 11 -6 13 -2 7 21 -6 22 -5 26 4 18 6 -6 10 -24 8 -39z m-87 -12
c-9 -16 -10 -16 -11 -1 0 9 3 25 7 35 7 16 8 17 11 1 2 -10 -1 -25 -7 -35z
m54 37 c3 -5 1 -10 -4 -10 -6 0 -11 5 -11 10 0 6 2 10 4 10 3 0 8 -4 11 -10z
m-3685 -10 c0 -5 -8 -10 -17 -10 -15 0 -16 2 -3 10 19 12 20 12 20 0z m3757
-42 c-3 -8 -6 -5 -6 6 -1 11 2 17 5 13 3 -3 4 -12 1 -19z m-37 -17 c0 -6 -4
-13 -10 -16 -5 -3 -10 1 -10 9 0 9 5 16 10 16 6 0 10 -4 10 -9z m50 -56 c0 -5
-5 -3 -10 5 -5 8 -10 20 -10 25 0 6 5 3 10 -5 5 -8 10 -19 10 -25z m-176 -77
c3 -35 5 -76 4 -93 0 -16 17 -73 39 -125 44 -105 56 -143 42 -134 -5 3 -9 0
-9 -5 0 -22 -36 -10 -71 23 -28 25 -36 39 -32 58 4 19 -3 31 -26 51 -35 29
-39 39 -14 35 10 -2 19 5 21 16 3 14 0 17 -12 12 -53 -21 -52 -21 -36 -5 8 8
23 18 32 22 22 8 31 60 26 142 -3 56 -2 65 13 65 14 0 19 -12 23 -62z m-3677
32 c1 -11 0 -20 -2 -20 -2 0 -9 9 -15 20 -8 15 -8 20 3 20 7 0 13 -9 14 -20z
m3710 -27 c-3 -10 -5 -4 -5 12 0 17 2 24 5 18 2 -7 2 -21 0 -30z m-4077 -62
c0 -6 -4 -13 -10 -16 -5 -3 -10 1 -10 9 0 9 5 16 10 16 6 0 10 -4 10 -9z m-40
-61 c0 -5 8 -10 17 -10 9 0 14 -3 10 -6 -8 -8 -47 5 -47 17 0 5 5 9 10 9 6 0
10 -4 10 -10z m60 -50 c0 -5 -8 -10 -17 -10 -15 0 -16 2 -3 10 19 12 20 12 20
0z m-84 -45 c18 -13 18 -14 -4 -8 -12 3 -25 9 -28 14 -8 14 10 11 32 -6z
m-863 -94 c5 -21 -9 -41 -30 -41 -8 0 -13 12 -13 30 0 23 5 30 19 30 10 0 21
-9 24 -19z m5511 -1212 c-2 -4 2 -10 8 -12 9 -4 10 -6 1 -6 -6 -1 -15 4 -18 9
-3 6 -11 10 -17 10 -6 0 -1 -11 12 -25 20 -21 21 -27 10 -38 -10 -10 -12 -9
-7 5 3 9 -2 23 -14 34 -26 23 -24 34 5 32 14 -1 23 -5 20 -9z m47 -22 c-6 -8
-8 -17 -4 -21 4 -4 0 -4 -10 0 -17 6 -17 7 0 20 23 17 28 18 14 1z m-5 -56
c-7 -9 -19 -25 -25 -36 -11 -19 -12 -18 -5 4 5 18 3 22 -7 16 -8 -5 -11 -4 -6
1 5 5 14 9 20 9 7 1 11 6 10 11 -1 6 5 11 13 11 12 0 12 -3 0 -16z m5 -174
c-10 -9 -11 -8 -5 6 3 10 9 15 12 12 3 -3 0 -11 -7 -18z m79 -31 c0 -8 -9 -24
-20 -37 l-19 -24 17 37 c19 41 22 45 22 24z m-53 -45 c0 -11 -5 -18 -9 -15 -4
3 -5 11 -1 19 7 21 12 19 10 -4z m-7107 -91 c0 -5 -7 -10 -15 -10 -8 0 -15 5
-15 10 0 6 7 10 15 10 8 0 15 -4 15 -10z m790 -20 c0 -5 -5 -10 -11 -10 -5 0
-7 5 -4 10 3 6 8 10 11 10 2 0 4 -4 4 -10z m-170 -50 c0 -5 -8 -10 -17 -10
-15 0 -16 2 -3 10 19 12 20 12 20 0z m6258 -135 c-3 -3 -9 2 -12 12 -6 14 -5
15 5 6 7 -7 10 -15 7 -18z m-6458 -105 c0 -5 -5 -10 -11 -10 -5 0 -7 5 -4 10
3 6 8 10 11 10 2 0 4 -4 4 -10z"/>
<path d="M6110 3440 c0 -5 5 -10 11 -10 5 0 7 5 4 10 -3 6 -8 10 -11 10 -2 0
-4 -4 -4 -10z"/>
<path d="M3970 3385 c-13 -14 -19 -25 -13 -25 6 0 14 8 17 17 5 12 9 14 18 5
15 -15 28 -15 28 -1 0 5 -5 7 -12 3 -8 -5 -9 -2 -5 9 9 25 -6 21 -33 -8z"/>
<path d="M225 4530 c3 -5 12 -7 20 -3 21 7 19 13 -6 13 -11 0 -18 -4 -14 -10z"/>
<path d="M3303 4035 c-22 -9 -33 -21 -33 -35 0 -31 27 -90 41 -90 7 0 21 -7
31 -17 16 -15 18 -15 18 0 0 9 6 20 13 24 24 14 27 54 6 94 -21 43 -29 45 -76
24z"/>
<path d="M3366 3826 c3 -27 9 -58 14 -70 7 -17 9 -15 9 14 0 19 -7 51 -15 70
l-14 35 6 -49z"/>
<path d="M4933 3804 c0 -16 13 -19 21 -5 3 5 0 11 -7 14 -8 3 -14 -1 -14 -9z"/>
<path d="M5266 3795 c-3 -8 0 -15 7 -14 14 1 54 17 47 19 -31 9 -49 7 -54 -5z"/>
<path d="M5036 3785 c4 -8 8 -15 10 -15 2 0 4 7 4 15 0 8 -4 15 -10 15 -5 0
-7 -7 -4 -15z"/>
<path d="M5326 3784 c-7 -19 0 -34 17 -34 8 0 8 3 0 11 -6 6 -9 18 -6 25 3 8
3 14 0 14 -3 0 -8 -7 -11 -16z"/>
<path d="M5373 3785 c-17 -19 -16 -28 2 -21 9 3 15 0 15 -8 0 -9 7 -12 20 -9
11 3 20 9 20 14 0 5 5 9 10 9 6 0 10 -9 10 -19 0 -18 27 -37 38 -26 3 3 0 5
-6 5 -6 0 -9 7 -6 15 4 8 12 15 20 15 16 0 19 16 4 25 -5 3 -10 2 -10 -4 0 -6
-11 -6 -29 -1 -19 5 -31 5 -33 -2 -2 -6 -11 -4 -20 6 -20 19 -20 19 -35 1z"/>
<path d="M4830 3781 c0 -5 7 -12 16 -15 22 -9 24 -8 24 9 0 8 -9 15 -20 15
-11 0 -20 -4 -20 -9z"/>
<path d="M4886 3783 c-12 -12 -6 -25 10 -19 12 4 15 2 10 -9 -3 -8 -1 -15 3
-15 5 0 11 7 15 15 5 15 -26 39 -38 28z"/>
<path d="M5083 3783 c-20 -7 -15 -23 6 -23 10 0 21 6 24 13 5 14 -7 17 -30 10z"/>
<path d="M4805 3760 c-3 -5 3 -10 15 -10 17 0 20 -4 15 -21 -5 -14 -3 -19 3
-15 6 3 13 2 17 -4 10 -17 -15 -11 -44 9 -18 13 -32 17 -41 11 -12 -7 -11 -10
3 -16 10 -4 16 -13 13 -20 -3 -8 3 -18 14 -24 26 -14 30 -13 31 8 0 11 2 12 6
4 4 -10 8 -10 19 -1 16 13 19 49 4 49 -5 0 -10 6 -10 14 0 8 -7 17 -16 20 -21
8 -22 8 -29 -4z"/>
<path d="M4578 3743 c6 -2 18 -2 25 0 6 3 1 5 -13 5 -14 0 -19 -2 -12 -5z"/>
<path d="M4666 3735 c4 -9 13 -15 21 -13 23 5 20 23 -4 26 -18 3 -21 0 -17
-13z"/>
<path d="M5416 3725 c4 -8 9 -15 13 -15 4 0 8 7 8 15 0 8 -6 15 -13 15 -8 0
-11 -6 -8 -15z"/>
<path d="M5554 3725 c3 -8 -2 -18 -11 -23 -18 -11 -2 -25 19 -17 20 8 22 55 2
55 -10 0 -14 -6 -10 -15z"/>
<path d="M4571 3716 c-6 -7 -9 -21 -5 -30 7 -17 34 -22 34 -6 0 6 -7 10 -15
10 -22 0 -18 15 8 28 16 8 17 11 6 11 -9 1 -22 -5 -28 -13z"/>
<path d="M4907 3715 c-4 -8 -2 -17 2 -20 5 -2 11 4 14 15 6 23 -8 27 -16 5z"/>
<path d="M5850 3720 c0 -5 5 -10 10 -10 6 0 10 5 10 10 0 6 -4 10 -10 10 -5 0
-10 -4 -10 -10z"/>
<path d="M5885 3721 c-3 -6 0 -11 8 -11 20 0 17 -32 -5 -38 -22 -5 -24 -32 -3
-32 22 0 55 37 55 60 0 11 -4 20 -9 20 -5 0 -16 3 -24 6 -8 3 -18 1 -22 -5z"/>
<path d="M5950 3706 c0 -15 5 -14 70 7 8 3 -4 6 -27 6 -31 1 -43 -3 -43 -13z"/>
<path d="M4604 3694 c3 -9 6 -18 6 -21 0 -3 7 0 15 7 17 14 11 30 -12 30 -10
0 -13 -6 -9 -16z"/>
<path d="M4006 3687 c3 -10 9 -15 12 -12 3 3 0 11 -7 18 -10 9 -11 8 -5 -6z"/>
<path d="M4350 3690 c0 -5 5 -10 11 -10 5 0 7 5 4 10 -3 6 -8 10 -11 10 -2 0
-4 -4 -4 -10z"/>
<path d="M5855 3690 c3 -5 8 -10 11 -10 2 0 4 5 4 10 0 6 -5 10 -11 10 -5 0
-7 -4 -4 -10z"/>
<path d="M6080 3689 c0 -5 -5 -7 -11 -3 -8 5 -8 1 0 -14 8 -15 8 -21 -2 -25
-6 -2 1 -4 17 -4 17 0 36 5 43 13 11 11 8 12 -14 11 -22 -2 -27 2 -25 16 2 9
0 17 -3 17 -3 0 -5 -5 -5 -11z"/>
<path d="M4932 3679 c2 -6 8 -10 13 -10 5 0 11 4 13 10 2 6 -4 11 -13 11 -9 0
-15 -5 -13 -11z"/>
<path d="M4430 3670 c0 -5 5 -10 10 -10 6 0 10 5 10 10 0 6 -4 10 -10 10 -5 0
-10 -4 -10 -10z"/>
<path d="M4630 3666 c0 -2 7 -6 15 -10 8 -3 15 -1 15 4 0 6 -7 10 -15 10 -8 0
-15 -2 -15 -4z"/>
<path d="M4552 3655 c4 -4 0 -14 -9 -20 -15 -11 -12 -13 20 -12 21 1 36 6 34
12 -2 5 -8 10 -13 10 -5 0 -16 4 -24 9 -8 5 -12 6 -8 1z"/>
<path d="M4971 3651 c-10 -7 -7 -9 12 -8 14 1 23 5 20 10 -6 9 -15 9 -32 -2z"/>
<path d="M6033 3653 c4 -3 -1 -12 -11 -20 -15 -13 -15 -13 6 -3 19 9 23 30 5
30 -4 0 -3 -3 0 -7z"/>
<path d="M4194 3595 c8 -8 20 -15 27 -15 7 0 4 6 -7 15 -25 19 -40 19 -20 0z"/>
<path d="M4860 3580 c0 -5 4 -10 9 -10 6 0 13 5 16 10 3 6 -1 10 -9 10 -9 0
-16 -4 -16 -10z"/>
<path d="M6052 3568 c5 -14 68 -42 68 -31 0 5 -7 17 -16 28 -13 17 -16 18 -24
5 -7 -10 -10 -11 -10 -2 0 6 -5 12 -11 12 -6 0 -9 -5 -7 -12z"/>
<path d="M4150 3541 c0 -8 -7 -10 -20 -6 -11 3 -20 2 -20 -4 0 -15 41 -24 53
-12 8 8 8 14 -1 23 -9 9 -12 9 -12 -1z"/>
<path d="M5440 3530 c0 -5 4 -10 9 -10 6 0 13 5 16 10 3 6 -1 10 -9 10 -9 0
-16 -4 -16 -10z"/>
<path d="M6360 3531 c0 -6 5 -11 10 -11 6 0 10 -7 10 -15 0 -8 5 -15 10 -15 7
0 7 6 0 19 -12 24 -30 36 -30 22z"/>
<path d="M6422 3457 c-12 -15 -21 -77 -11 -77 5 0 11 16 15 35 7 41 19 46 22
9 3 -40 41 -69 57 -44 3 5 0 7 -8 4 -8 -3 -18 0 -23 7 -4 7 -3 14 3 16 6 2 8
13 5 25 -4 18 -3 19 17 9 11 -7 21 -9 21 -7 0 8 -39 27 -65 32 -12 2 -27 -2
-33 -9z"/>
<path d="M6357 3413 c-4 -3 -7 -11 -7 -17 0 -6 4 -6 11 1 6 6 18 9 27 6 10 -4
13 -2 8 5 -8 13 -29 16 -39 5z"/>
<path d="M3621 3324 c0 -11 3 -14 6 -6 3 7 2 16 -1 19 -3 4 -6 -2 -5 -13z"/>
<path d="M6440 3324 c0 -8 5 -12 10 -9 6 3 10 10 10 16 0 5 -4 9 -10 9 -5 0
-10 -7 -10 -16z"/>
<path d="M6561 3248 c-1 -9 3 -19 9 -23 5 -3 7 -12 3 -20 -3 -8 0 -15 6 -15 6
0 11 14 11 31 0 16 -4 28 -9 25 -5 -4 -12 0 -14 6 -4 8 -6 7 -6 -4z"/>
<path d="M3438 3133 c7 -3 16 -2 19 1 4 3 -2 6 -13 5 -11 0 -14 -3 -6 -6z"/>
<path d="M3549 3113 c-13 -16 -12 -17 4 -4 16 13 21 21 13 21 -2 0 -10 -8 -17
-17z"/>
<path d="M2330 3000 c-13 -25 -9 -85 5 -84 6 1 15 11 21 23 6 12 15 22 20 21
5 -1 12 13 15 29 6 29 4 31 -22 31 -18 0 -32 -7 -39 -20z"/>
<path d="M6827 2847 c3 -13 14 -29 26 -37 21 -12 21 -12 5 7 -10 11 -18 25
-18 31 0 6 -4 13 -9 16 -4 3 -6 -5 -4 -17z"/>
<path d="M1963 2603 c-16 -6 -18 -103 -3 -103 6 0 11 7 11 15 1 8 2 21 3 28 0
6 8 12 16 12 8 0 21 10 28 23 7 12 17 20 22 17 6 -4 10 -1 10 4 0 11 -64 14
-87 4z"/>
<path d="M2703 2323 c9 -2 23 -2 30 0 6 3 -1 5 -18 5 -16 0 -22 -2 -12 -5z"/>
<path d="M2491 2094 c0 -11 3 -14 6 -6 3 7 2 16 -1 19 -3 4 -6 -2 -5 -13z"/>
<path d="M2302 1820 c0 -19 2 -27 5 -17 2 9 2 25 0 35 -3 9 -5 1 -5 -18z"/>
<path d="M7035 1730 c-7 -12 2 -30 16 -30 12 0 12 27 0 35 -5 3 -12 1 -16 -5z"/>
<path d="M2111 1668 c1 -55 5 -50 11 15 2 20 0 37 -4 37 -4 0 -7 -24 -7 -52z"/>
<path d="M2165 1681 c-3 -5 -2 -12 3 -15 5 -3 9 1 9 9 0 17 -3 19 -12 6z"/>
<path d="M7090 1480 c0 -5 5 -10 10 -10 6 0 10 5 10 10 0 6 -4 10 -10 10 -5 0
-10 -4 -10 -10z"/>
<path d="M454 960 c-12 -5 -24 -20 -28 -34 -8 -31 2 -76 17 -76 6 0 18 -7 27
-15 37 -34 74 14 63 82 -8 52 -29 63 -79 43z"/>
<path d="M1218 703 c12 -2 32 -2 45 0 12 2 2 4 -23 4 -25 0 -35 -2 -22 -4z"/>
<path d="M7346 681 c-11 -12 -16 -30 -14 -48 l4 -28 8 30 c5 17 16 38 24 48
21 23 -1 22 -22 -2z"/>
<path d="M7298 602 c-1 -4 -19 -20 -38 -34 l-35 -27 -69 15 c-38 8 -71 12 -73
10 -6 -5 16 -11 89 -26 56 -11 59 -10 98 17 22 15 40 34 40 41 0 14 -7 16 -12
4z"/>
<path d="M985 379 c-4 -6 -5 -12 -2 -15 2 -3 7 2 10 11 7 17 1 20 -8 4z"/>
<path d="M7571 178 c1 -86 6 -163 10 -170 5 -7 6 61 2 152 -3 91 -8 167 -10
170 -2 2 -3 -66 -2 -152z"/>
<path d="M550 146 c0 -8 -6 -17 -12 -19 -8 -3 -6 -6 5 -6 11 -1 17 6 17 19 0
11 -2 20 -5 20 -3 0 -5 -6 -5 -14z"/>
<path d="M612 86 c7 -8 15 -12 17 -11 5 6 -10 25 -20 25 -5 0 -4 -6 3 -14z"/>
<path d="M650 86 c7 -7 14 -6 21 1 9 9 7 12 -9 10 -14 -1 -18 -5 -12 -11z"/>
<path d="M703 93 c9 -2 23 -2 30 0 6 3 -1 5 -18 5 -16 0 -22 -2 -12 -5z"/>
<path d="M630 56 c0 -9 30 -14 35 -6 4 6 -3 10 -14 10 -12 0 -21 -2 -21 -4z"/>
</g>
</svg>
